<svg id="Layer_1" data-name="Layer 1" xmlns="http://www.w3.org/2000/svg" viewBox="0 0 360 360"><defs><style>.cls-1{fill:#fff;}</style></defs><title>kubeadm-icon-white</title><path class="cls-1" d="M123.92084,256.44305l31.662,36.64527c4.0285,4.97516,6.76239-.71234,9.55133-2.55847,3.82794-2.53394.92456-4.54041-1.0575-6.63361-4.5993-4.857-9.046-9.85858-13.37475-14.60449-3.27649.92322,3.48022-2.39142-.75141-1.93592-6.59851-9.8977-7.14868-8.42175-12.26733-15.32421a324.05883,324.05883,0,0,1-36.6322-63.69129c-13.17316-30.20013-23.00367-61.3634-22.6905-94.75824.1449-15.4541,2.48462-30.68121,13.85486-42.56311,7.32447-7.654,10.58606-7.20007,16.118,1.228,6.46325,9.84692,17.6535,14.70477,28.50665,12.37512a28.08737,28.08737,0,0,0,22.00079-22.09747c2.01923-10.9372-2.97278-21.81714-12.92645-28.30542a30.964,30.964,0,0,0-7.07514-2.99133,24.58509,24.58509,0,0,0-15.76782,0c-12.171,3.83392-19.05212,15.90136-32.26105,19.75915C80.18408,34.09052,74.14465,43.82129,69.60419,53.816c-6.4823,14.2691-8.48957,29.39117-7.55127,44.82117C65.65521,157.87421,90.67969,208.7702,123.92084,256.44305Z"/><path class="cls-1" d="M353.606,175.38379c-.6814-5.32056-3.0047-10.17511-5.75684-14.82965-10.2218-17.28736-25.90192-28.09461-43.43317-36.63812-28.58258-13.9292-59.19317-20.29969-90.57086-23.0495-38.91833-3.41059-77.55243-1.42328-115.65838,7.98449-5.79535,1.43079-8.84619,3.68238-7.31708,10.16767,1.87164,7.9375,6.85095,2.91333,10.038,2.20587,24.10846-5.35144,48.5423-7.38526,72.38037-8.043,22.53162.40582,44.19831,2.058,65.55951,6.2959,27.78485,5.51227,54.61206,13.75305,77.6037,31.16589,9.19611,6.96472,17.15332,15.29895,19.757,27.05426,1.55,6.99829,1.98334,12.77741-9.16748,12.42841-15.4541-.48358-26.94342,12.32733-26.82074,27.29657a27.69385,27.69385,0,0,0,27.09582,27.55084c14.20356.29431,26.209-11.78259,27.24323-25.49982C354.73767,202.868,355.47473,189.97638,353.606,175.38379Z"/><path class="cls-1" d="M212.81494,281.41809l12.36725-15.57342c25.35291-33.907,44.917-70.7884,56.90149-111.54145,1.579-5.36926,3.5954-10.09039-4.3833-12.35864-8.43207-2.39709-6.36133,4.63959-7.49787,7.99084-19.67535,58.01331-50.25781,108.85621-97.47314,148.76032-10.89716,9.20978-22.675,17.28613-36.22443,22.20117-10.43029,3.78357-21.12286,6.92664-32.27392,3.16577-6.85413-2.31164-13.2345-4.10486-6.41168-14.14886,10.11792-14.89478-.57386-32.73493-14.43573-38.51148C68.215,265.08118,51.69092,274.13159,47.29834,289.964c-4.33051,15.60864,5.65747,31.2511,21.95789,34.179,3.12017.56042,6.16571.46923,8.7066,3.12017,21.24683,22.167,45.51727,18.072,69.81329,6.9054C173.82385,322.19678,194.11487,302.70117,212.81494,281.41809Z"/><path class="cls-1" d="M58.50037,241.10486c2.42486-4.36835-.34046-7.65192-4.9231-9.924a86.95405,86.95405,0,0,1-27.82794-21.14679c-15.4372-18.00885-14.431-37.54614,2.57989-53.9729a88.96342,88.96342,0,0,1,22.43006-16.113c6.04529-2.96991,5.13714-7.38922,3.22473-11.4801-2.67273-5.71717-5.6922-.14087-8.34631.74951a30.86037,30.86037,0,0,0-7.36054,4.23852C20.586,145.69562,4.99677,159.41351,4.05408,183.24847c.11981,7.85846,1.68884,15.35108,5.7976,22.31226C19.26129,221.50262,33.582,231.7793,49.59039,239.9563,52.06171,241.21863,55.846,245.88684,58.50037,241.10486Z"/><path class="cls-1" d="M198.7547,53.16608c10.70172-7.18372,22.36957-12.24964,35.29956-14.1062,19.52484-2.80353,34.01923,5.68005,40.99493,24.2647a75.3482,75.3482,0,0,1,4.29346,30.38611c-.31329,6.41657,1.207,10.85712,7.95685,10.88684,5.57965.0246,4.3667-8.46576,4.3338-9.975a132.92027,132.92027,0,0,0-4.48553-31.11444c-6.68225-24.13788-27.72028-37.84186-52.595-34.81482-15.19629,1.8493-28.57135,8.21454-41.11194,16.49255-2.46546,1.62744-8.21979,2.49542-5.57538,7.14606C190.29474,56.60413,194.42242,56.0741,198.7547,53.16608Z"/><path class="cls-1" d="M290.1712,268.09619c-.77484-3.24908,2.26288-9.06659-3.37426-9.282-6.40668-.24475-6.0954,5.40478-5.87183,10.18634a89.34681,89.34681,0,0,1-4.66547,33.57239c-7.50836,21.77264-26.13537,31.2146-48.1806,24.53747-9.21612-2.79144-18.12512-6.38586-26.07159-11.86389-5.4079-3.72809-8.15064.68726-10.59925,3.50537-3.94885,4.54486,1.77784,4.99127,3.86084,6.28388a112.62109,112.62109,0,0,0,31.13971,13.49536c26.09076,6.77673,48.53607-4.60309,58.4715-29.59149,4.13092-10.38953,5.57574-21.24286,5.422-32.3498C290.30225,273.74823,290.81232,270.78491,290.1712,268.09619Z"/><path class="cls-1" d="M67.57068,257.68542c-.21478,2.13624-1.6366,5.65333,1.859,6.13739,3.59881.49842,3.15887-3.159,3.3938-5.40942,1.48626-14.23694,4.89843-28.03564,9.08386-41.6806,1.15393-3.7619,2.21338-7.65845-2.71344-10.82794A210.83224,210.83224,0,0,0,67.57068,257.68542Z"/><path class="cls-1" d="M164.68018,55.346c12.54779,8.82361,23.39575,19.50818,33.74969,30.72967,2.61871,2.83814,5.4079,4.42047,10.00653,1.99427a223.98712,223.98712,0,0,0-40.84595-37.09235c-1.6286-1.13385-3.68743-3.1214-5.399-.55194C160.54315,52.90027,163.04126,54.19354,164.68018,55.346Z"/><path class="cls-1" d="M294.30188,237.69836a225.70222,225.70222,0,0,1-40.61749,12.90039c-3.82453.86841-7.87653,1.54731-8.43421,8.22962,18.47437-4.00952,35.41535-9.06085,51.57886-16.535,1.85065-.85578,6.14227-.66925,4.71137-4.29505C299.9306,233.919,296.54718,236.71765,294.30188,237.69836Z"/><path class="cls-1" d="M101.239,168.90649c7.64344-12.9392,16.2099-28.86431,23.24958-40.78143C112.04761,129.54254,97.75592,154.5813,101.239,168.90649Z"/><path class="cls-1" d="M232.96387,130.6734c6.43316,11.47125,12.79211,22.81006,19.72577,35.17371C258.09412,153.36639,245.14185,131.67847,232.96387,130.6734Z"/><path class="cls-1" d="M166.15411,78.70905c1.7121-1.55036,5.65741-3.02442,2.17328-6.63227-2.72448-2.82129-5.17724-3.11737-7.99011.00641-4.69879,5.21838-9.59936,10.25513-15.23865,16.24292C156.60071,91.8277,160.63342,83.708,166.15411,78.70905Z"/><path class="cls-1" d="M274.92505,227.41339c.503,2.89526,1.34772,5.73169,5.4823,4.38147,3.46228-1.13074,4.10626-3.41034,3.11139-6.62469-2.18207-7.04987-3.27454-14.47632-7.20471-21.19434C267.91461,212.01935,273.59912,219.78229,274.92505,227.41339Z"/><path class="cls-1" d="M85.10754,248.44629c-1.06036,3.31439-.20068,5.34375,3.37268,6.1889,7.46766,1.7663,14.90076,3.67853,23.285,5.76386-3.452-12.10132-13.10828-11.49365-20.76819-14.1565C88.454,245.35852,86.1673,245.13354,85.10754,248.44629Z"/><path class="cls-1" d="M129.13574,194.57727a33.0685,33.0685,0,0,1-6.35083,1.04681,29.61869,29.61869,0,0,0-3.39911.27369c-.272.05035-.64978.14605-.9461.22l-.03107.00671-.05035.01508a3.55612,3.55612,0,1,0,1.574,6.904l.05292-.00836c.0235-.00507.04364-.01679.06714-.021.29211-.06628.65985-.13684.91675-.20654a29.86827,29.86827,0,0,0,3.17834-1.21808,33.1805,33.1805,0,0,1,6.17706-1.81751,3.92891,3.92891,0,0,1,2.03663.71943l1.54467-.26447a46.10675,46.10675,0,0,0,20.43341,25.50989l-.64557,1.54468a3.5159,3.5159,0,0,1,.31647,2.0039,34.613,34.613,0,0,1-3.20685,5.76233,29.52718,29.52718,0,0,0-1.89984,2.83081c-.141.26691-.31982.67578-.455.95532a3.55781,3.55781,0,1,0,6.39782,3.03565l.00592-.00671v-.00843c.13434-.277.32489-.6405.43824-.8999a29.31038,29.31038,0,0,0,1.02246-3.24719,24.78085,24.78085,0,0,1,2.74353-6.36511,2.87982,2.87982,0,0,1,1.527-.74549l.8034-1.45233a45.85089,45.85089,0,0,0,32.69519.08313c.225.40125.64472,1.16858.75549,1.36249a2.79985,2.79985,0,0,1,1.80915,1.09973,32.99726,32.99726,0,0,1,2.43286,5.95709,29.6152,29.6152,0,0,0,1.02838,3.24719c.115.26191.30225.6305.43823.90833a3.55948,3.55948,0,1,0,6.4054-3.02808c-.13513-.27954-.32154-.68835-.46173-.95367a29.44057,29.44057,0,0,0-1.89978-2.824,33.05675,33.05675,0,0,1-3.14142-5.62463,2.7824,2.7824,0,0,1,.272-2.09039,12.1959,12.1959,0,0,1-.59015-1.42969,46.10509,46.10509,0,0,0,20.42334-25.69287c.45838.07306,1.25678.2124,1.51618.26526a2.80126,2.80126,0,0,1,1.9812-.73621,33.141,33.141,0,0,1,6.17871,1.81751,29.489,29.489,0,0,0,3.18,1.22735c.256.06714.62122.131.915.19562.02435.00671.04614.01758.06964.0235l.05042.00757a3.55611,3.55611,0,1,0,1.57654-6.90406h.00006c-.30225-.0697-.73377-.1889-1.03009-.24347a29.9395,29.9395,0,0,0-3.39661-.27368,33.12835,33.12835,0,0,1-6.355-1.04266,3.98318,3.98318,0,0,1-1.52789-1.538l-1.43049-.41638a46.0356,46.0356,0,0,0-7.37921-31.88672c.366-.33245,1.05945-.9461,1.25507-1.12658a2.80217,2.80217,0,0,1,.66485-2.00641,33.15416,33.15416,0,0,1,5.26954-3.70221,29.46284,29.46284,0,0,0,2.94415-1.71765c.22833-.16956.54065-.43817.77991-.62958a3.56116,3.56116,0,1,0-4.41242-5.54071c-.24176.19055-.57086.44073-.78577.62707a29.38984,29.38984,0,0,0-2.34136,2.47657,33.18942,33.18942,0,0,1-4.7768,4.32171,3.93682,3.93682,0,0,1-2.14911.2334l-1.3482.96289a46.432,46.432,0,0,0-29.40937-14.2102c-.03277-.47095-.07306-1.32392-.08563-1.58161a2.80732,2.80732,0,0,1-1.156-1.77136,33.18769,33.18769,0,0,1,.40124-6.42718,29.465,29.465,0,0,0,.48273-3.36811c.01092-.2854-.00586-.70013-.00586-1.00824a3.56116,3.56116,0,1,0-7.08624.00336c0,.03357.00756.06549.00842.09906-.00336.29382-.01764.64978-.00842.90668a29.7879,29.7879,0,0,0,.48358,3.3706,33.14007,33.14007,0,0,1,.39453,6.42554,3.86248,3.86248,0,0,1-1.15009,1.83179l-.084,1.49933a46.21807,46.21807,0,0,0-6.40534.98474,45.57579,45.57579,0,0,0-23.14837,13.22546q-.64646-.44577-1.28113-.90832a2.79832,2.79832,0,0,1-2.10376-.204,33.05975,33.05975,0,0,1-4.77673-4.31592,29.60628,29.60628,0,0,0-2.3313-2.4765c-.21576-.1847-.54566-.43653-.78748-.62879a4.22253,4.22253,0,0,0-2.46979-.93182,3.41314,3.41314,0,0,0-2.82324,1.25,3.75509,3.75509,0,0,0,.8714,5.22339l.05457.03857c.23169.18976.51715.43237.732.58936a29.60038,29.60038,0,0,0,2.93738,1.7193,33.04648,33.04648,0,0,1,5.26874,3.70385,3.93749,3.93749,0,0,1,.71271,2.04334l1.13415,1.01416A45.84745,45.84745,0,0,0,132.142,192.612l-1.4834.43146A4.899,4.899,0,0,1,129.13574,194.57727Zm35.86261,5.38538-7.08618,17.12243a36.683,36.683,0,0,1-14.7215-18.42535l18.28687-3.10529.03107.04029a3.06671,3.06671,0,0,1,.61279-.05457,3.123,3.123,0,0,1,2.8241,4.35278Zm20.917,22.02093v-.00085a36.63315,36.63315,0,0,1-19.99267-1.02759l8.99353-16.26276h.01514a3.12711,3.12711,0,0,1,5.50457-.00506h.0672l9.01624,16.28967Q187.76392,221.56292,185.91534,221.98358Zm11.61951-4.82879v-.00086L190.37561,199.856l.02185-.03107a3.12707,3.12707,0,0,1,1.51361-4.04889,3.09342,3.09342,0,0,1,1.19629-.31061,3.01617,3.01617,0,0,1,.71777.05286l.03107-.03857,18.44965,3.11786A36.54361,36.54361,0,0,1,197.53485,217.15479Zm16.7077-27.21686-17.92413-5.16266-.01678-.07556a3.12712,3.12712,0,0,1-1.22565-5.36945l-.00672-.03613,13.83661-12.38342A37.17159,37.17159,0,0,1,214.24255,189.93793ZM203.35681,159.968h.00086L188.21558,170.7027l-.05286-.02436a3.12548,3.12548,0,0,1-4.964-2.3833l-.01678-.00756-1.05188-18.55634A36.8119,36.8119,0,0,1,203.35681,159.968Zm-28.52368,20.33941h5.69849l3.54272,4.4292-1.2702,5.52472-5.11756,2.46228-5.13269-2.46814-1.2727-5.52643Zm-5.36108-29.92651a37.50711,37.50711,0,0,1,3.78027-.64978l-1.05353,18.584-.07727.03692a3.12295,3.12295,0,0,1-4.95642,2.39423l-.02936.01678-15.24029-10.806A36.49079,36.49079,0,0,1,169.47205,150.38092Zm-23.103,16.523v-.00079l13.91388,12.44391-.01514.07635a3.12294,3.12294,0,0,1-1.22729,5.3678l-.01429.06042-17.8352,5.147A36.47969,36.47969,0,0,1,146.369,166.90393Z"/></svg>