<svg id="Layer_1" data-name="Layer 1" xmlns="http://www.w3.org/2000/svg" viewBox="0 0 758.02879 246.69718"><defs><style>.cls-1{fill:#fff;}</style></defs><title>kubeadm-horizontal-white</title><path class="cls-1" d="M316.81689,149.297q-3.41217-4.55439-7.04931-8.82758a78.33511,78.33511,0,0,0-7.04938-7.34546q6.82141-6.694,12.5639-12.98962,5.73908-6.29407,11.76758-13.21711H306.90533q-1.59045,1.92216-3.80487,4.52167-2.214,2.59883-4.71325,5.48194-2.5,2.88308-5.16742,5.82147-2.66895,2.93838-5.16822,5.65088V78.4924l-16.94085,2.73v85.49878h16.94085V140.50949a46.256,46.256,0,0,1,5.73114,5.58563q2.89152,3.30552,5.50367,6.8938,2.61044,3.58988,4.93652,7.1781,2.32617,3.59079,4.14282,6.5542h19.47937q-1.9346-3.75723-4.77508-8.314Q320.22693,153.85373,316.81689,149.297Z"/><path class="cls-1" d="M369.91278,106.91727v46.16027q-1.592.22752-3.63837.39814-2.04794.17065-3.8659.17065-5.9144.00257-8.07233-3.63837-2.16047-3.63849-2.16046-11.82367v-31.267H335.23566v33.31292a47.34435,47.34435,0,0,0,1.25049,11.25653,22.38053,22.38053,0,0,0,4.20635,8.81086,19.22531,19.22531,0,0,0,8.01539,5.74121,33.999,33.999,0,0,0,12.67761,2.04754,91.636,91.636,0,0,0,14.32538-1.08069,94.12091,94.12091,0,0,0,11.14282-2.33026l-.00006-57.75811Z"/><path class="cls-1" d="M451.65875,114.19412a22.0591,22.0591,0,0,0-8.186-6.30994A26.98785,26.98785,0,0,0,432.217,105.666a30.352,30.352,0,0,0-6.59515.6825,31.67118,31.67118,0,0,0-5.91181,1.93384V78.4924l-16.94085,2.73v83.56684q2.273.68426,5.2301,1.30645,2.95678.624,6.19623,1.08069,3.23949.45337,6.59436.73938,3.35439.28437,6.4245.2843A36.71917,36.71917,0,0,0,440.403,165.982a26.73459,26.73459,0,0,0,9.77777-6.31,27.383,27.383,0,0,0,6.08245-9.89148,37.80775,37.80775,0,0,0,2.10352-12.96119,44.84733,44.84733,0,0,0-1.70538-12.79058A28.35143,28.35143,0,0,0,451.65875,114.19412Zm-14.09869,34.7901a12.17429,12.17429,0,0,1-10.45954,4.77594q-2.275,0-4.20715-.17059-1.93386-.16983-3.18341-.39813V122.37936a14.76094,14.76094,0,0,1,4.15027-1.70459,19.97761,19.97761,0,0,1,5.17242-.68255q12.052-.00073,12.052,16.37213v-.00006A20.75926,20.75926,0,0,1,437.56006,148.98422Z"/><path class="cls-1" d="M497.25012,105.32474a28.644,28.644,0,0,0-10.6308,2.04754,26.68447,26.68447,0,0,0-9.1521,6.02558,29.84363,29.84363,0,0,0-6.4245,9.94836,36.57043,36.57043,0,0,0-2.444,13.9281,38.956,38.956,0,0,0,1.8761,12.27857,25.93111,25.93111,0,0,0,5.798,9.83459,27.32062,27.32062,0,0,0,9.89148,6.53748,37.671,37.671,0,0,0,14.04187,2.38885,59.73716,59.73716,0,0,0,6.36682-.34131q3.18173-.34111,5.96948-.853a47.64946,47.64946,0,0,0,5.05872-1.1944,23.45969,23.45969,0,0,0,3.63922-1.36334l-2.27423-13.75745a34.54325,34.54325,0,0,1-7.33368,2.10272,48.95262,48.95262,0,0,1-9.15216.85309,19.65018,19.65018,0,0,1-11.59693-3.0697,11.25593,11.25593,0,0,1-4.88971-8.3006h38.43006q.11205-1.36258.22748-3.12653c.0736-1.17437.11376-2.25335.11376-3.24029q-.00081-15.12076-7.39062-22.90949Q509.98215,105.32474,497.25012,105.32474Zm-11.25635,25.469a24.1809,24.1809,0,0,1,1.08063-4.2641,11.43693,11.43693,0,0,1,2.10358-3.69531,10.0946,10.0946,0,0,1,3.41089-2.55774,11.38582,11.38582,0,0,1,4.88885-.96692,10.743,10.743,0,0,1,4.9458,1.02374,10.32737,10.32737,0,0,1,3.29712,2.61469,10.54416,10.54416,0,0,1,1.93213,3.63837,17.58191,17.58191,0,0,1,.73944,4.20721Z"/><path class="cls-1" d="M579.85,111.919a19.441,19.441,0,0,0-8.01624-4.888,39.209,39.209,0,0,0-12.50616-1.7063q-2.9567.00337-5.85486.28424-2.90158.2861-5.51367.68255-2.61458.39807-4.83283.91-2.21988.51269-3.69531.96686l2.15967,13.642a36.81138,36.81138,0,0,1,7.27685-1.76147,58.176,58.176,0,0,1,8.52814-.62567q6.478.00247,9.09521,2.61462a9.38015,9.38015,0,0,1,2.61463,6.93561v1.59253a26.25706,26.25706,0,0,0-4.15033-.73938,54.08759,54.08759,0,0,0-5.855-.2843,45.29664,45.29664,0,0,0-9.43646.96686,25.447,25.447,0,0,0-8.07312,3.12658,16.20423,16.20423,0,0,0-5.62745,5.798,17.44907,17.44907,0,0,0-2.10278,8.86938,20.99552,20.99552,0,0,0,1.81842,9.20905,15.33326,15.33326,0,0,0,5.231,6.08246,22.82425,22.82425,0,0,0,8.12829,3.35406,49.71445,49.71445,0,0,0,10.51716,1.02374,97.30188,97.30188,0,0,0,15.68957-1.08062q6.48055-1.07987,10.119-1.87525V129.76993a38.18118,38.18118,0,0,0-1.24957-10.119A18.01106,18.01106,0,0,0,579.85,111.919Zm-10.74469,42.52362a32.95577,32.95577,0,0,1-3.63837.34124q-2.27508.11381-4.77429.11377a14.75164,14.75164,0,0,1-7.3338-1.5357,5.809,5.809,0,0,1-2.67151-5.51374,6.00794,6.00794,0,0,1,.90832-3.41088,6.352,6.352,0,0,1,2.50257-2.16132,11.75883,11.75883,0,0,1,3.69531-1.079,33.662,33.662,0,0,1,4.48993-.28436,34.00278,34.00278,0,0,1,3.75213.22754,30.96039,30.96039,0,0,1,3.06971.455Z"/><path class="cls-1" d="M636.52759,108.28232a34.151,34.151,0,0,0-5.62744-1.93384,26.62624,26.62624,0,0,0-6.31159-.6825,28.00473,28.00473,0,0,0-11.31177,2.16132,22.402,22.402,0,0,0-8.35748,6.25305,28.56384,28.56384,0,0,0-5.22931,9.94837,44.17992,44.17992,0,0,0-1.82007,13.13177,37.28122,37.28122,0,0,0,2.10444,12.9043,26.83739,26.83739,0,0,0,6.08245,9.77771,26.4646,26.4646,0,0,0,9.77771,6.19623A37.63174,37.63174,0,0,0,629.02319,168.2q3.06885-.0033,6.42371-.28436,3.35486-.28766,6.5943-.73938,3.24033-.45328,6.19623-1.08063,2.955-.62649,5.231-1.30652l.00006-86.29675-16.94085,2.73Zm-.00006,44.90905q-1.25126.22743-3.18341.39814-1.93378.17066-4.20722.17059a12.17171,12.17171,0,0,1-10.46026-4.77594,20.74787,20.74787,0,0,1-3.52466-12.61987q-.00165-16.37211,12.05279-16.37213a19.98811,19.98811,0,0,1,5.17243.68255,14.77352,14.77352,0,0,1,4.15033,1.70459Z"/><path class="cls-1" d="M751.01672,121.81058a21.30386,21.30386,0,0,0-3.75219-8.64026,17.719,17.719,0,0,0-7.33374-5.62738,29.89071,29.89071,0,0,0-11.76679-1.99073,31.68739,31.68739,0,0,0-17.05456,5.57227,23.769,23.769,0,0,0-6.65125-3.92279,28.22823,28.22823,0,0,0-10.51709-1.64941q-3.29544.00329-6.70807.28436-3.40923.28436-6.65118.79626-3.23868.5127-6.13941,1.13752-2.90065.62557-5.05865,1.19274v57.75806h16.94086V120.56094q1.59081-.2275,3.29718-.39813,1.70123-.17065,3.29712-.17065a7.80022,7.80022,0,0,1,7.21832,3.411q2.10442,3.41006,2.10443,11.59777v31.72034h16.94086V134.09085q-.00165-3.298-.22754-6.19617a26.0984,26.0984,0,0,0-1.02375-5.51538,14.88271,14.88271,0,0,1,4.03656-1.70459,15.25026,15.25026,0,0,1,3.80909-.68255,7.80309,7.80309,0,0,1,7.22,3.411q2.10268,3.41006,2.10272,11.59777v31.72034h16.94086V132.95334A55.75965,55.75965,0,0,0,751.01672,121.81058Z"/><path class="cls-1" d="M87.113,177.61587l21.97363,25.432c2.79578,3.45276,4.69312-.49438,6.62866-1.77563,2.65662-1.75855.64167-3.151-.73394-4.6037-3.1919-3.37079-6.2779-6.84192-9.28211-10.13562-2.27392.64074,2.41529-1.65961-.52148-1.34351-4.57941-6.86908-4.96124-5.84473-8.51355-10.63507a224.89733,224.89733,0,0,1-25.42291-44.202c-9.14222-20.959-15.9646-42.58642-15.74732-65.76257.10053-10.72522,1.72437-21.29291,9.61536-29.53894,5.08319-5.31195,7.34668-4.99689,11.18591.85223,4.48554,6.83387,12.25165,10.2052,19.78375,8.58844a19.49284,19.49284,0,0,0,15.26862-15.33575c1.40137-7.59046-2.06311-15.14118-8.971-19.6441a21.49151,21.49151,0,0,0-4.91016-2.076,17.0625,17.0625,0,0,0-10.94293,0c-8.44671,2.66076-13.22223,11.03564-22.38934,13.713-7.3747,2.15381-11.5661,8.907-14.71716,15.84338-4.49872,9.90277-5.89185,20.39758-5.2406,31.106C46.67637,109.20865,64.04349,144.53067,87.113,177.61587Z"/><path class="cls-1" d="M242.52005,111.06857c-7.094-11.9975-17.97607-19.4978-30.14282-25.427-19.83642-9.66693-41.08026-14.08807-62.8565-15.9964-27.00953-2.367-53.82166-.98779-80.26734,5.54126-4.022.993-6.13934,2.55554-5.07806,7.05634,1.29889,5.50866,4.75458,2.02191,6.96631,1.53094,16.73138-3.714,33.68853-5.12543,50.23224-5.58191,15.63708.28162,30.67382,1.42822,45.49859,4.36933,19.28278,3.82556,37.901,9.54473,53.8573,21.62927,6.38208,4.83356,11.90448,10.61755,13.71137,18.77575,1.07574,4.85688,1.37646,8.86762-6.36225,8.62543-10.72522-.33569-18.69885,8.55518-18.61371,18.94385a19.21972,19.21972,0,0,0,18.80463,19.12042c9.85724.20429,18.18909-8.17718,18.90686-17.697.124-11.52435.63556-20.47119-.66138-30.59851A27.24093,27.24093,0,0,0,242.52005,111.06857Z"/><path class="cls-1" d="M148.80576,194.94864l8.583-10.80805c17.595-23.53161,31.17254-49.12744,39.48986-77.41015,1.09583-3.72632,2.49524-7.00281-3.042-8.577-5.85187-1.66363-4.41479,3.21985-5.20355,5.54566-13.65472,40.26147-34.87909,75.54663-67.64673,103.24023-7.56268,6.39166-15.73657,11.9967-25.13989,15.40772-7.23865,2.62585-14.6593,4.80706-22.3982,2.19708-4.75683-1.60431-9.18481-2.84882-4.44976-9.8194,7.02191-10.337-.3982-22.71814-10.01844-26.72711-10.527-4.3869-21.99481,1.8941-25.04327,12.88183a18.91832,18.91832,0,0,0,15.23883,23.7204c2.16541.38892,4.279.32563,6.04242,2.16541,14.74536,15.384,31.58917,12.54205,48.45068,4.79236C121.74588,223.24924,135.82785,209.71915,148.80576,194.94864Z"/><path class="cls-1" d="M41.71091,166.971c1.68286-3.03162-.23627-5.31043-3.41662-6.88727a60.34581,60.34581,0,0,1-19.31275-14.6759C8.268,132.90958,8.96634,119.35068,20.772,107.95041a61.73953,61.73953,0,0,1,15.56653-11.1825c4.19543-2.06109,3.56518-5.12817,2.238-7.96722-1.85486-3.96777-3.95038-.09778-5.79236.52014a21.41873,21.41873,0,0,0-5.10821,2.94153C15.39817,100.75674,4.5792,110.277,3.925,126.81851a30.61628,30.61628,0,0,0,4.02362,15.4848c6.53028,11.06372,16.46894,18.19574,27.5788,23.87061C37.24247,167.05,39.86875,170.28976,41.71091,166.971Z"/><path class="cls-1" d="M139.04789,36.5408a58.6518,58.6518,0,0,1,24.4981-9.78973c13.5503-1.94562,23.60944,3.942,28.45063,16.83978A52.29308,52.29308,0,0,1,194.97629,64.679c-.21747,4.45313.83771,7.53486,5.5221,7.55549,3.87225.01709,3.03051-5.87531,3.00763-6.92267a92.24716,92.24716,0,0,0-3.11286-21.59357c-4.63757-16.75171-19.238-26.26239-36.50116-24.16156-10.54632,1.28339-19.82867,5.70093-28.53186,11.44586-1.71106,1.12946-5.70459,1.73181-3.86932,4.95935C133.17673,38.92685,136.04129,38.55905,139.04789,36.5408Z"/><path class="cls-1" d="M200.14951,179.26138c-4.44623-.16986-4.23022,3.75092-4.075,7.0694a62.00789,62.00789,0,0,1-3.23786,23.29932c-5.21087,15.11035-18.13812,21.66308-33.4375,17.02917a64.2689,64.2689,0,0,1-18.09381-8.23364c-3.75311-2.58728-5.65661.477-7.356,2.4328-2.74048,3.15411,1.23388,3.46393,2.6795,4.361a78.15885,78.15885,0,0,0,21.611,9.36585c18.10712,4.70306,33.68427-3.19458,40.57947-20.53669a57.85692,57.85692,0,0,0,3.76288-22.4508c0-1.97211.354-4.02863-.09094-5.89466C201.95353,183.44827,204.06174,179.41086,200.14951,179.26138Z"/><path class="cls-1" d="M48.00571,178.47806c-.14905,1.48254-1.13574,3.9234,1.29016,4.2594,2.49756.34588,2.1922-2.19239,2.35529-3.75415a152.70774,152.70774,0,0,1,6.3042-28.92652c.80084-2.61084,1.53613-5.315-1.88312-7.51465A146.318,146.318,0,0,0,48.00571,178.47806Z"/><path class="cls-1" d="M115.40006,38.05368c8.70825,6.12366,16.23675,13.53876,23.42242,21.32654,1.81739,1.96966,3.75312,3.06781,6.94458,1.384A155.44708,155.44708,0,0,0,117.41983,35.022c-1.13024-.78686-2.55908-2.16626-3.74688-.383C112.529,36.35635,114.26267,37.25387,115.40006,38.05368Z"/><path class="cls-1" d="M205.35807,164.607a156.64176,156.64176,0,0,1-28.18872,8.95294c-2.65424.60267-5.46637,1.0738-5.8534,5.71137,12.82129-2.78265,24.57843-6.28827,35.796-11.47534,1.28436-.59387,4.26276-.46448,3.26972-2.98078C209.26438,161.984,206.91629,163.9263,205.35807,164.607Z"/><path class="cls-1" d="M71.37168,116.86508c5.30456-8.9798,11.24975-20.03192,16.13525-28.30243C78.87284,89.54642,68.95438,106.92343,71.37168,116.86508Z"/><path class="cls-1" d="M162.78922,90.33121c4.46466,7.96112,8.87775,15.83026,13.68976,24.4107C180.22971,106.08023,171.24082,91.02872,162.78922,90.33121Z"/><path class="cls-1" d="M116.423,54.26773c1.18823-1.07593,3.92627-2.09894,1.5083-4.60278-1.89087-1.958-3.59308-2.16352-5.54517.00445-3.261,3.62158-6.662,7.11707-10.57574,11.27265C109.79288,63.37216,112.59159,57.737,116.423,54.26773Z"/><path class="cls-1" d="M191.91044,157.46915c.34912,2.00927.93536,3.97778,3.80468,3.04077,2.4029-.78473,2.8498-2.36682,2.15937-4.5976-1.51435-4.89264-2.27253-10.04663-5.00013-14.70892C187.0452,146.78561,190.99027,152.17313,191.91044,157.46915Z"/><path class="cls-1" d="M60.17637,172.06607c-.73591,2.30017-.13929,3.70856,2.34063,4.2951,5.18256,1.22583,10.34119,2.55292,16.15991,4.00013-2.39575-8.39838-9.09722-7.97663-14.41326-9.82465C62.49881,169.92313,60.91184,169.767,60.17637,172.06607Z"/><path class="cls-1" d="M90.73209,134.68075a22.95044,22.95044,0,0,1-4.40747.72651,20.5491,20.5491,0,0,0-2.359.18994c-.18878.03491-.45093.10138-.65662.15265l-.02154.00463-.035.0105a2.468,2.468,0,1,0,1.0924,4.79138l.03669-.00579c.01635-.00348.03033-.01166.04663-.01459.20276-.046.45794-.095.63623-.14331a20.73209,20.73209,0,0,0,2.20581-.8454,23.03128,23.03128,0,0,1,4.2868-1.26135,2.72671,2.72671,0,0,1,1.41345.49933l1.072-.18354a31.99857,31.99857,0,0,0,14.1809,17.704l-.448,1.072a2.43988,2.43988,0,0,1,.2196,1.39069,24.01477,24.01477,0,0,1-2.22559,3.99909,20.50357,20.50357,0,0,0-1.31848,1.9646c-.09784.1853-.22192.469-.31573.663a2.46912,2.46912,0,1,0,4.44012,2.10669l.004-.00464v-.0058c.09326-.19226.22546-.44458.30414-.62463a20.33415,20.33415,0,0,0,.70965-2.25354,17.19687,17.19687,0,0,1,1.904-4.41742,1.99773,1.99773,0,0,1,1.05975-.51733l.55756-1.00794a31.8208,31.8208,0,0,0,22.69055.05768c.15619.2785.44751.811.52441.94556a1.943,1.943,0,0,1,1.25549.76324,22.899,22.899,0,0,1,1.68842,4.13428,20.55126,20.55126,0,0,0,.71375,2.25354c.07977.18176.20971.43756.30407.63037a2.47032,2.47032,0,1,0,4.44538-2.1015c-.09382-.194-.22315-.47773-.32044-.66187a20.42611,20.42611,0,0,0-1.31848-1.9599,22.93676,22.93676,0,0,1-2.18011-3.9035,1.93068,1.93068,0,0,1,.18878-1.45075,8.46266,8.46266,0,0,1-.40961-.99218,31.99738,31.99738,0,0,0,14.17389-17.83094c.31811.05066.87219.1474,1.05218.18409a1.94449,1.94449,0,0,1,1.375-.511,22.99981,22.99981,0,0,1,4.28809,1.26141,20.46358,20.46358,0,0,0,2.20691.85175c.17767.04663.43115.09094.63507.13574.01685.0047.032.01227.04834.01636l.03491.00525a2.468,2.468,0,1,0,1.09418-4.79145h.00006c-.20978-.04834-.50922-.1311-.7149-.16894a20.77,20.77,0,0,0-2.35724-.18994,22.99213,22.99213,0,0,1-4.4104-.72357,2.7649,2.7649,0,0,1-1.06037-1.06739l-.9928-.289a31.94893,31.94893,0,0,0-5.12121-22.12951c.254-.23072.73529-.65662.871-.78187a1.9445,1.9445,0,0,1,.46143-1.39245,23.00849,23.00849,0,0,1,3.657-2.56934,20.44659,20.44659,0,0,0,2.04327-1.19207c.15845-.11768.37519-.30408.54126-.437a2.47145,2.47145,0,1,0-3.06225-3.84527c-.16779.13226-.39618.30591-.54535.43524a20.41048,20.41048,0,0,0-1.62488,1.71869,23.0306,23.0306,0,0,1-3.31512,2.99933,2.73288,2.73288,0,0,1-1.49146.162l-.93567.66827A32.22379,32.22379,0,0,0,127.13749,97.042c-.02277-.3269-.05066-.91882-.05945-1.09766a1.9479,1.9479,0,0,1-.80225-1.2293,23.03267,23.03267,0,0,1,.27844-4.46052,20.45572,20.45572,0,0,0,.335-2.33746c.00756-.19812-.00409-.4859-.00409-.69971a2.47146,2.47146,0,1,0-4.91785.00232c0,.02326.00525.04541.00586.06873-.00238.20392-.01227.45093-.00586.62921a20.66707,20.66707,0,0,0,.33557,2.33923,22.99484,22.99484,0,0,1,.27387,4.45935,2.68073,2.68073,0,0,1-.79822,1.27125l-.05823,1.04058a32.07107,32.07107,0,0,0-4.44537.68335,31.62956,31.62956,0,0,0-16.06507,9.17859q-.44861-.30936-.8891-.63043a1.94182,1.94182,0,0,1-1.46-.14154,22.94275,22.94275,0,0,1-3.31506-2.99524,20.53841,20.53841,0,0,0-1.61792-1.71869c-.14978-.12817-.37872-.303-.54651-.4364a2.93066,2.93066,0,0,0-1.71405-.64673,2.369,2.369,0,0,0-1.95935.86749,2.60608,2.60608,0,0,0,.60474,3.62506l.0379.0268c.16083.13165.35889.3.508.409a20.53284,20.53284,0,0,0,2.03858,1.19317,22.93312,22.93312,0,0,1,3.65649,2.57056,2.73183,2.73183,0,0,1,.49463,1.418l.78711.7038a31.81844,31.81844,0,0,0-5.01684,22.182l-1.02948.2995A3.39923,3.39923,0,0,1,90.73209,134.68075Zm24.88886,3.73743L110.703,150.30124A25.45823,25.45823,0,0,1,100.4863,137.514l12.69116-2.15515.02155.028a2.12834,2.12834,0,0,1,.42529-.0379,2.16725,2.16725,0,0,1,1.9599,3.02087Zm14.51647,15.28266v-.00062a25.424,25.424,0,0,1-13.875-.71313l6.24158-11.28644h.01044a2.1703,2.1703,0,0,1,3.82025-.00348h.04657l6.25732,11.30512Q131.42039,153.409,130.13742,153.70084Zm8.064-3.35126V150.349l-4.96857-12.00482.01514-.02155a2.17029,2.17029,0,0,1,1.05048-2.81,2.14785,2.14785,0,0,1,.8302-.21557,2.09209,2.09209,0,0,1,.49816.03674l.02155-.02679,12.80414,2.16381A25.36085,25.36085,0,0,1,138.20139,150.34958ZM149.7966,131.461l-12.43939-3.58295-.01166-.05243a2.17026,2.17026,0,0,1-.85064-3.72638l-.00464-.02508,9.60266-8.59418A25.79664,25.79664,0,0,1,149.7966,131.461Zm-7.55481-20.79926h.00062l-10.50867,7.44989-.03668-.01684a2.16916,2.16916,0,0,1-3.44507-1.65406l-.01166-.00524-.73-12.87818A25.54818,25.54818,0,0,1,142.24179,110.66177Zm-19.79553,14.1156H126.401l2.45867,3.07392-.88153,3.83416-3.55157,1.70887-3.56213-1.71289-.88324-3.83539Zm-3.72058-20.769a26.01347,26.01347,0,0,1,2.62354-.451l-.7312,12.8974-.05359.02564a2.16735,2.16735,0,0,1-3.43976,1.66162l-.02039.01165-10.57684-7.49945A25.324,25.324,0,0,1,118.72568,104.00833Zm-16.03363,11.467.00006-.00061,9.65625,8.63611-.01043.053a2.1673,2.1673,0,0,1-.85181,3.72522l-.00989.042-12.37768,3.572A25.3169,25.3169,0,0,1,102.69205,115.47537Z"/></svg>