<svg id="Layer_1" data-name="Layer 1" xmlns="http://www.w3.org/2000/svg" viewBox="0 0 360 360"><defs><style>.cls-1{fill:#75c5f0;}.cls-2{opacity:0.49;}.cls-3{opacity:0.75;}.cls-4{fill:#326ce5;}</style></defs><title>kubeadm-icon-color</title><path class="cls-1" d="M123.92086,256.44308c-33.24115-47.67287-58.26566-98.56888-61.868-157.8059-.93831-15.43,1.069-30.55206,7.55127-44.82118,4.54044-9.99468,10.5799-19.72546,21.20622-22.82894,13.209-3.85777,20.09007-15.92521,32.26105-19.75914a24.58508,24.58508,0,0,1,15.76786,0,30.96449,30.96449,0,0,1,7.07512,2.99134c9.95368,6.48825,14.9457,17.36825,12.92644,28.30543a28.08737,28.08737,0,0,1-22.00078,22.09747C125.98692,66.9518,114.79667,62.094,108.33342,52.247c-5.532-8.42811-8.79356-8.88207-16.118-1.228-11.37025,11.88187-13.71,27.109-13.85487,42.56312-.31313,33.3948,9.51737,64.55808,22.69054,94.7582a324.05886,324.05886,0,0,0,36.6322,63.69134c5.1186,6.90246,5.66882,5.42646,12.2673,15.32418,4.23167-.45547-2.52508,2.85915.75143,1.93589,4.32878,4.74593,8.77544,9.74751,13.37473,14.60452,1.98208,2.0932,4.88545,4.09965,1.05753,6.6336-2.78895,1.84615-5.52282,7.53366-9.55136,2.55848"/><g class="cls-2"><path class="cls-1" d="M173.28794,113.18153c-23.83807.65775-48.27189,2.69157-72.38035,8.04305-3.187.70744-8.16634,5.7316-10.03793-2.2059-1.52917-6.48528,1.52172-8.73685,7.31707-10.16764,38.106-9.40778,76.74-11.3951,115.65839-7.98448,31.37765,2.74978,61.98825,9.12024,90.57082,23.04945,17.53124,8.54354,33.21137,19.35077,43.43317,36.63817,2.75214,4.65449,5.07546,9.50907,5.75682,14.82959,1.86881,14.59261,1.13171,27.48425.953,44.08983-1.03424,13.71722-13.0397,25.79413-27.24321,25.49982a27.694,27.694,0,0,1-27.09587-27.55088c-.12267-14.96922,11.36666-27.78015,26.82077-27.29652,11.15082.349,10.71751-5.43016,9.16747-12.42842-2.60362-11.75534-10.56084-20.08958-19.75693-27.05427-22.99168-17.41283-49.81888-25.65362-77.60375-31.1659C217.48628,115.23952,195.81961,113.58736,173.28794,113.18153Z"/></g><g class="cls-3"><path class="cls-1" d="M212.81492,281.41811c-18.70005,21.28305-38.991,40.77871-65.03877,52.75047-24.296,11.16665-48.56647,15.2616-69.8133-6.9054-2.54089-2.65091-5.58643-2.55973-8.7066-3.12015-16.30043-2.92793-26.28843-18.5704-21.9579-34.17905,4.3926-15.83237,20.91665-24.8828,36.08527-18.56164,13.86189,5.7766,24.55362,23.6167,14.43572,38.5115-6.82283,10.044-.44245,11.83721,6.41169,14.14885,11.15107,3.76084,21.84363.61782,32.2739-3.16577,13.54941-4.915,25.32726-12.9914,36.22444-22.20116,47.21531-39.90415,77.79779-90.747,97.47312-148.76031,1.13656-3.35129-.93418-10.388,7.49786-7.99086,7.97872,2.26824,5.96235,6.98938,4.38333,12.35868-11.98451,40.753-31.54859,77.63437-56.90151,111.54139"/></g><g class="cls-2"><path class="cls-1" d="M4.05407,183.24849c.94271-23.835,16.53194-37.55283,34.2231-49.79244a30.86061,30.86061,0,0,1,7.3605-4.23852c2.65414-.89038,5.67363-6.46666,8.34632-.7495,1.91242,4.09087,2.82057,8.51022-3.22469,11.4801a88.96159,88.96159,0,0,0-22.43005,16.11305c-17.01093,16.42676-18.01712,35.964-2.57995,53.97292a86.95384,86.95384,0,0,0,27.828,21.14675c4.58267,2.27209,7.34794,5.5557,4.9231,9.924-2.65444,4.78195-6.43865.11377-8.90995-1.14856-16.00837-8.177-30.32915-18.45367-39.73871-34.39555C5.74292,198.59956,4.17389,191.10694,4.05407,183.24849Z"/></g><g class="cls-3"><path class="cls-1" d="M291.6333,94.62258c.03292,1.50918,1.24583,9.99957-4.3338,9.975-6.7498-.02973-8.27017-4.47028-7.95686-10.88685a75.34921,75.34921,0,0,0-4.29342-30.38613c-6.97573-18.58462-21.47011-27.06822-40.99493-24.2647-12.93,1.85658-24.59787,6.9225-35.29962,14.10618-4.33224,2.90807-8.45991,3.43807-10.88916-.83417-2.64443-4.65061,3.10991-5.51857,5.57536-7.146,12.54056-8.278,25.91562-14.64326,41.112-16.49255,24.87469-3.02709,45.91272,10.67694,52.595,34.81478A132.92314,132.92314,0,0,1,291.6333,94.62258Z"/></g><path class="cls-1" d="M290.30223,276.58988c.15374,11.1069-1.29109,21.96023-5.422,32.34974-9.93542,24.98842-32.38078,36.36826-58.47153,29.59154a112.62133,112.62133,0,0,1-31.13968-13.49536c-2.083-1.29259-7.80973-1.73906-3.86087-6.28389,2.4486-2.81812,5.19138-7.23344,10.59925-3.50539,7.94647,5.47806,16.85545,9.07244,26.07163,11.86393,22.04517,6.6771,40.67222-2.76483,48.1806-24.53751a89.3481,89.3481,0,0,0,4.66545-33.57238c-.22361-4.78158-.53487-10.4311,5.87179-10.18635,5.63716.21538,2.59944,6.03289,3.37427,9.282C290.81233,270.785,290.30223,273.74825,290.30223,276.58988Z"/><g class="cls-3"><path class="cls-1" d="M79.19384,205.90485c4.92683,3.16952,3.86737,7.066,2.71344,10.828-4.18542,13.64492-7.59759,27.44364-9.08387,41.68061-.23493,2.25039.205,5.90783-3.39376,5.4094-3.49554-.48411-2.07376-4.00118-1.859-6.13738A210.83433,210.83433,0,0,1,79.19384,205.90485Z"/></g><path class="cls-1" d="M208.43637,88.0699c-4.5986,2.42621-7.38781.84388-10.00652-1.99424C188.07591,74.85415,177.228,64.1696,164.68017,55.346c-1.63888-1.15245-4.137-2.44571-2.4887-4.92034,1.71155-2.56951,3.77036-.58191,5.399.5519A223.98817,223.98817,0,0,1,208.43637,88.0699Z"/><g class="cls-2"><path class="cls-1" d="M245.25016,258.82839c.55768-6.68233,4.60972-7.36123,8.4342-8.22961a225.70741,225.70741,0,0,0,40.61753-12.90038c2.2453-.98076,5.6287-3.77943,7.23853.3,1.43089,3.62578-2.86071,3.43928-4.71137,4.29505C280.66555,249.76753,263.72455,254.81885,245.25016,258.82839Z"/></g><g class="cls-3"><path class="cls-1" d="M101.239,168.90648c-3.48309-14.32514,10.80854-39.3639,23.24955-40.7814C117.44894,140.04216,108.88247,155.96728,101.239,168.90648Z"/></g><path class="cls-1" d="M252.68965,165.84715c-6.93368-12.36369-13.29259-23.7025-19.72577-35.17375C245.14184,131.67846,258.09409,153.3664,252.68965,165.84715Z"/><g class="cls-3"><path class="cls-1" d="M145.09862,88.32613c5.63932-5.9878,10.53985-11.02455,15.23869-16.24289,2.81285-3.12384,5.26557-2.82772,7.99011-.00644,3.48412,3.60782-.4612,5.08194-2.17333,6.63226C160.63341,83.708,156.60069,91.8277,145.09862,88.32613Z"/></g><path class="cls-1" d="M276.314,203.97585c3.93018,6.718,5.02266,14.14447,7.20471,21.19435.99488,3.21431.35088,5.494-3.11143,6.62467-4.13453,1.35024-4.97922-1.48622-5.48227-4.38147C273.59914,219.78229,267.9146,212.01937,276.314,203.97585Z"/><g class="cls-2"><path class="cls-1" d="M111.7652,260.39905c-8.38423-2.08531-15.81735-3.99755-23.285-5.76382-3.57337-.84518-4.433-2.87453-3.3727-6.18892,1.05979-3.31274,3.34647-3.08774,5.88948-2.20373C98.65692,248.90543,108.31317,248.29772,111.7652,260.39905Z"/></g><path class="cls-4" d="M237.02159,196.05561c-.30222-.06967-.73372-.18889-1.03007-.24345a29.92337,29.92337,0,0,0-3.39663-.27368,33.13021,33.13021,0,0,1-6.355-1.04265,3.98338,3.98338,0,0,1-1.52789-1.538l-1.43051-.41639a46.03565,46.03565,0,0,0-7.37919-31.88673c.366-.33244,1.05944-.94612,1.255-1.12661a2.80237,2.80237,0,0,1,.66489-2.00641,33.15591,33.15591,0,0,1,5.26954-3.70219,29.46115,29.46115,0,0,0,2.94413-1.71762c.22835-.16958.54063-.43822.77989-.62962a3.56116,3.56116,0,1,0-4.4124-5.5407c-.24178.19056-.57086.44074-.78578.62711a29.38637,29.38637,0,0,0-2.34137,2.47652,33.1882,33.1882,0,0,1-4.77675,4.32175,3.93734,3.93734,0,0,1-2.14912.23338l-1.34824.96291A46.43186,46.43186,0,0,0,181.59275,140.343c-.03274-.471-.073-1.32389-.08563-1.58162a2.80716,2.80716,0,0,1-1.156-1.77134,33.18807,33.18807,0,0,1,.40127-6.42722,29.47661,29.47661,0,0,0,.48271-3.36807c.01092-.28543-.00588-.70014-.00588-1.00824a3.56116,3.56116,0,1,0-7.08621.00336c0,.03358.00756.06548.00839.09906-.00336.29382-.01763.64977-.00839.90666a29.7802,29.7802,0,0,0,.48355,3.37059,33.13856,33.13856,0,0,1,.39457,6.42553,3.86249,3.86249,0,0,1-1.15011,1.83179l-.08395,1.49935a46.21725,46.21725,0,0,0-6.40539.98473,45.57558,45.57558,0,0,0-23.14838,13.22549q-.64642-.44577-1.28108-.90834a2.798,2.798,0,0,1-2.10378-.204,33.0618,33.0618,0,0,1-4.77676-4.31587,29.59814,29.59814,0,0,0-2.33128-2.47652c-.21576-.18469-.54567-.43654-.78746-.62878a4.22262,4.22262,0,0,0-2.46981-.93185,3.41339,3.41339,0,0,0-2.82323,1.25,3.75507,3.75507,0,0,0,.8714,5.22337l.05457.03862c.2317.18972.51713.43234.732.58933a29.59831,29.59831,0,0,0,2.93741,1.71929,33.04885,33.04885,0,0,1,5.26871,3.70388,3.93721,3.93721,0,0,1,.71273,2.04334l1.13416,1.01412A45.84756,45.84756,0,0,0,132.142,192.612l-1.4834.43151a4.89843,4.89843,0,0,1-1.52285,1.53376,33.06732,33.06732,0,0,1-6.35082,1.04686,29.60292,29.60292,0,0,0-3.39913.27368c-.272.05036-.64978.14607-.94612.21994l-.03106.00671-.05037.01512a3.55612,3.55612,0,1,0,1.57406,6.904l.05289-.00839c.02351-.005.04366-.01679.06717-.021.29214-.06631.65985-.13683.91673-.20652a29.87615,29.87615,0,0,0,3.17835-1.21812,33.183,33.183,0,0,1,6.177-1.81751,3.92886,3.92886,0,0,1,2.03663.71945l1.54469-.26444A46.107,46.107,0,0,0,154.33923,225.737l-.64557,1.54467a3.51584,3.51584,0,0,1,.31649,2.00388,34.61047,34.61047,0,0,1-3.2069,5.76233,29.53642,29.53642,0,0,0-1.89979,2.83079c-.141.267-.31984.67579-.455.95535a3.5578,3.5578,0,1,0,6.39783,3.03563l.00588-.00671v-.00839c.13432-.277.32488-.64054.43822-.9a29.29975,29.29975,0,0,0,1.02251-3.24719,24.78024,24.78024,0,0,1,2.74349-6.36508,2.87954,2.87954,0,0,1,1.52706-.74548l.8034-1.45233a45.851,45.851,0,0,0,32.69516.08311c.225.40128.64474,1.16858.75555,1.36251a2.79971,2.79971,0,0,1,1.80912,1.09974,32.99736,32.99736,0,0,1,2.43286,5.95709,29.61355,29.61355,0,0,0,1.0284,3.24718c.115.26192.30222.63047.43822.90834a3.55948,3.55948,0,1,0,6.40539-3.02807c-.13516-.27955-.32153-.6884-.46173-.95368a29.433,29.433,0,0,0-1.89979-2.82407,33.0533,33.0533,0,0,1-3.14141-5.62465,2.7821,2.7821,0,0,1,.272-2.09036,12.18826,12.18826,0,0,1-.59017-1.42967,46.10541,46.10541,0,0,0,20.42336-25.69289c.45837.073,1.25672.21239,1.51613.26527a2.80149,2.80149,0,0,1,1.98122-.73624,33.14078,33.14078,0,0,1,6.17872,1.81751,29.49614,29.49614,0,0,0,3.18,1.22736c.256.06716.62123.131.91505.1956.02435.00672.04616.01763.06967.02351l.05037.00756a3.55612,3.55612,0,1,0,1.57658-6.90405ZM203.35765,159.968l-15.14207,10.73469-.05289-.02435a3.12545,3.12545,0,0,1-4.964-2.38334l-.01679-.00755L182.13,149.73117A36.81205,36.81205,0,0,1,203.3568,159.968Zm-28.52453,20.3394h5.69852l3.54269,4.4292-1.27016,5.52475-5.11759,2.46226-5.1327-2.46814-1.27269-5.52642Zm-5.36105-29.92649a37.50087,37.50087,0,0,1,3.78027-.64977l-1.05357,18.584-.07723.03693a3.12294,3.12294,0,0,1-4.95642,2.39426l-.02938.01678-15.24028-10.806A36.49047,36.49047,0,0,1,169.47207,150.38094Zm-23.103,16.5222,13.91388,12.44391-.01512.07639a3.12293,3.12293,0,0,1-1.22735,5.36776l-.01427.06045-17.83518,5.147a36.47962,36.47962,0,0,1,5.178-23.09465Zm18.62934,33.05951-7.08622,17.12244a36.68279,36.68279,0,0,1-14.72146-18.42534l18.28683-3.10532.03106.0403a3.06945,3.06945,0,0,1,.61283-.05457,3.12295,3.12295,0,0,1,2.82408,4.35281Zm20.917,22.02008a36.63331,36.63331,0,0,1-19.99269-1.02755l8.99356-16.26278h.01511a3.12713,3.12713,0,0,1,5.50461-.005h.06716l9.01623,16.28965q-1.75539.586-3.604,1.00657Zm11.61952-4.8288L190.37562,199.856l.02182-.03107a3.12715,3.12715,0,0,1,1.51362-4.0489,3.0937,3.0937,0,0,1,1.19629-.31062,3.01325,3.01325,0,0,1,.71776.0529l.03107-.03863,18.44969,3.11791a36.5434,36.5434,0,0,1-14.771,18.55714Zm16.70857-27.21575-17.925-5.16293-.01679-.07555a3.12715,3.12715,0,0,1-1.22568-5.36944l-.00671-.03609,13.83663-12.38347a37.17213,37.17213,0,0,1,5.3367,23.02749Z"/></svg>