<svg id="Layer_1" data-name="Layer 1" xmlns="http://www.w3.org/2000/svg" viewBox="0 0 310 353.7836"><defs><style>.cls-1{fill:#326ce5;}.cls-2{fill:#75c5f0;}.cls-3{opacity:0.49;}.cls-4{opacity:0.75;}</style></defs><title>kubeadm-stacked-color</title><path class="cls-1" d="M25.74461,322.7406q1.459-1.58349,3.01709-3.29883,1.55715-1.71533,3.01661-3.39844,1.459-1.68311,2.75146-3.20019,1.29273-1.51758,2.22119-2.63965H48.51073q-3.51929,4.04151-6.86963,7.71582-3.35229,3.6753-7.33446,7.583a45.73755,45.73755,0,0,1,4.11523,4.28808q2.1233,2.49464,4.11523,5.15332,1.99072,2.66016,3.65039,5.31836,1.65821,2.66016,2.78759,4.85352H37.6035q-1.06053-1.73-2.41846-3.82617-1.35791-2.09473-2.88183-4.19043-1.5249-2.09473-3.21289-4.02442a27.00475,27.00475,0,0,0-3.34571-3.26074V345.1156H15.855V295.20352l9.88964-1.59375Z"/><path class="cls-1" d="M83.42284,343.92129a54.9545,54.9545,0,0,1-6.50489,1.36036,53.49524,53.49524,0,0,1-8.36279.63085,19.84807,19.84807,0,0,1-7.40088-1.19531,11.22293,11.22293,0,0,1-4.6792-3.35156,13.065,13.065,0,0,1-2.45556-5.14355,27.63818,27.63818,0,0,1-.73-6.57129V310.20352h9.88919v18.25293q0,4.77832,1.26123,6.90234,1.25974,2.1255,4.7124,2.124,1.06128,0,2.25683-.09961,1.19459-.09961,2.124-.23242V310.20352h9.88965Z"/><path class="cls-1" d="M125.17041,327.65961a22.07121,22.07121,0,0,1-1.228,7.5664,15.98541,15.98541,0,0,1-3.55078,5.77442,15.60729,15.60729,0,0,1-5.708,3.68359,21.4362,21.4362,0,0,1-7.69922,1.29492q-1.79223,0-3.75049-.166-1.95849-.16695-3.84961-.43164-1.89113-.26656-3.61719-.63086-1.72629-.36324-3.05322-.7627V295.20352l9.88965-1.59375V311.0004a18.48708,18.48708,0,0,1,3.45117-1.12891,17.71892,17.71892,0,0,1,3.8501-.39844,15.75507,15.75507,0,0,1,6.5708,1.29492,12.87763,12.87763,0,0,1,4.77881,3.6836,16.55052,16.55052,0,0,1,2.92041,5.74121A26.18149,26.18149,0,0,1,125.17041,327.65961Zm-10.08887-.26563q0-9.55811-7.03565-9.55762a11.66319,11.66319,0,0,0-3.01954.39844,8.61807,8.61807,0,0,0-2.42285.99512v17.9873q.7295.1333,1.8584.23242,1.12792.09962,2.45605.09961a7.10711,7.10711,0,0,0,6.106-2.78808,12.11856,12.11856,0,0,0,2.05758-7.36722Z"/><path class="cls-1" d="M131.14354,327.9252a21.3487,21.3487,0,0,1,1.42676-8.13086,17.42243,17.42243,0,0,1,3.75049-5.80762,15.57751,15.57751,0,0,1,5.34277-3.51757,16.72177,16.72177,0,0,1,6.206-1.19532q7.4326,0,11.748,4.54688,4.314,4.54688,4.31446,13.374c0,.57617-.02344,1.20606-.06641,1.8916q-.06738,1.02979-.13281,1.8252H141.29833a6.57094,6.57094,0,0,0,2.8545,4.8457,11.47118,11.47118,0,0,0,6.77,1.792,28.57417,28.57417,0,0,0,5.34277-.498,20.16489,20.16489,0,0,0,4.28125-1.22754l1.32764,8.03125a13.69447,13.69447,0,0,1-2.12451.7959,27.8201,27.8201,0,0,1-2.95313.69726q-1.62744.29883-3.48486.498a34.868,34.868,0,0,1-3.7168.19922,21.9908,21.9908,0,0,1-8.19726-1.39453,15.94937,15.94937,0,0,1-5.77442-3.81641,15.13807,15.13807,0,0,1-3.38476-5.74121A22.74234,22.74234,0,0,1,131.14354,327.9252ZM154.374,324.142a10.26516,10.26516,0,0,0-.43164-2.45606,6.15582,6.15582,0,0,0-1.12793-2.124,6.0285,6.0285,0,0,0-1.9248-1.52637,6.27144,6.27144,0,0,0-2.88721-.59765,6.64706,6.64706,0,0,0-2.854.56445,5.89388,5.89388,0,0,0-1.99121,1.49316,6.67672,6.67672,0,0,0-1.228,2.15723,14.117,14.117,0,0,0-.63086,2.48926Z"/><path class="cls-1" d="M184.10887,309.27383a22.88973,22.88973,0,0,1,7.30079.9961,11.34924,11.34924,0,0,1,4.67968,2.85351,10.51427,10.51427,0,0,1,2.48926,4.51367,22.28913,22.28913,0,0,1,.72949,5.90723v20.57617q-2.124.46435-5.90722,1.09473a56.80009,56.80009,0,0,1-9.15918.63086,29.0227,29.0227,0,0,1-6.13964-.59766,13.32357,13.32357,0,0,1-4.74511-1.958,8.95126,8.95126,0,0,1-3.05371-3.55078,12.2568,12.2568,0,0,1-1.06153-5.376,10.18633,10.18633,0,0,1,1.22754-5.17774,9.45968,9.45968,0,0,1,3.28516-3.38476,14.856,14.856,0,0,1,4.71289-1.8252,26.444,26.444,0,0,1,5.50879-.56445,31.57747,31.57747,0,0,1,3.418.166,15.32877,15.32877,0,0,1,2.42285.43164v-.92968a5.47578,5.47578,0,0,0-1.52637-4.04883q-1.52783-1.5249-5.30957-1.52637a33.95969,33.95969,0,0,0-4.97852.36524,21.48807,21.48807,0,0,0-4.248,1.02832l-1.26074-7.96387q.86132-.26514,2.15722-.56445,1.29495-.29883,2.82129-.53125,1.5249-.23145,3.21875-.39844Q182.3828,309.27576,184.10887,309.27383Zm.79688,28.93946q1.459,0,2.78711-.06641a19.23571,19.23571,0,0,0,2.124-.19922v-7.5a18.07117,18.07117,0,0,0-1.792-.26562,19.85007,19.85007,0,0,0-2.19043-.13282,19.64438,19.64438,0,0,0-2.62109.166,6.86409,6.86409,0,0,0-2.15723.62988,3.70843,3.70843,0,0,0-1.46093,1.26172,3.50741,3.50741,0,0,0-.53028,1.99121,3.39115,3.39115,0,0,0,1.55957,3.21875A8.61163,8.61163,0,0,0,184.90575,338.21329Z"/><path class="cls-1" d="M239.06591,343.9877q-1.32863.397-3.05372.7627-1.72559.36621-3.61718.63085-1.89112.26368-3.8496.43165-1.95852.16406-3.75.166a21.96777,21.96777,0,0,1-7.69922-1.26172,15.44918,15.44918,0,0,1-5.708-3.61719,15.6675,15.6675,0,0,1-3.55078-5.708,21.76345,21.76345,0,0,1-1.22852-7.53321,25.79212,25.79212,0,0,1,1.0625-7.666,16.675,16.675,0,0,1,3.05274-5.80762,13.0779,13.0779,0,0,1,4.87891-3.65039,16.34878,16.34878,0,0,1,6.60351-1.26172,15.5417,15.5417,0,0,1,3.68457.39844,19.936,19.936,0,0,1,3.28516,1.12891V295.20352l9.88965-1.59375ZM216.69774,327.394a12.112,12.112,0,0,0,2.05762,7.36719,7.10556,7.10556,0,0,0,6.10644,2.78808q1.32716,0,2.45606-.09961,1.12793-.0996,1.85838-.23242v-17.9873a8.62411,8.62411,0,0,0-2.42285-.99512,11.66834,11.66834,0,0,0-3.01953-.39844Q216.69678,317.83633,216.69774,327.394Z"/><path class="cls-1" d="M267.53856,326.59805q0-4.77978-1.22851-6.77051a4.55353,4.55353,0,0,0-4.21387-1.99121q-.93165,0-1.92481.09961-.99609.09961-1.9248.23242V345.1156h-9.88965V311.39786q1.25976-.33111,2.95313-.69629,1.69335-.36476,3.584-.66407,1.89258-.29882,3.88281-.46484,1.9922-.16406,3.916-.166a16.47868,16.47868,0,0,1,6.13965.96289,13.87593,13.87593,0,0,1,3.88281,2.29,18.49835,18.49835,0,0,1,9.95605-3.25293,17.44961,17.44961,0,0,1,6.86914,1.1621,10.34409,10.34409,0,0,1,4.28125,3.28516,12.43577,12.43577,0,0,1,2.19043,5.04395,32.5494,32.5494,0,0,1,.59766,6.50488V345.1156H286.7202V326.59805q0-4.77978-1.22754-6.77051a4.5552,4.5552,0,0,0-4.21484-1.99121,8.90278,8.90278,0,0,0-2.22363.39844,8.68872,8.68872,0,0,0-2.35645.99512,15.2376,15.2376,0,0,1,.59766,3.21972q.13184,1.69189.13281,3.61719v19.0488h-9.88965Z"/><path class="cls-2" d="M109.21159,206.52079c-27.17752-38.97669-47.63723-80.58859-50.58245-129.02-.76715-12.61536.874-24.979,6.17382-36.6452,3.71221-8.17151,8.65-16.12727,17.33792-18.66463,10.7995-3.15406,16.42538-13.02024,26.37621-16.15481a20.1004,20.1004,0,0,1,12.89159,0,25.31611,25.31611,0,0,1,5.78452,2.44568c8.138,5.30471,12.2194,14.20005,10.56848,23.14214a22.96387,22.96387,0,0,1-17.98754,18.0666c-8.87337,1.90466-18.02237-2.067-23.30663-10.11778-4.52289-6.89071-7.1895-7.26186-13.17786-1.004-9.29616,9.71446-11.20911,22.164-11.32756,34.799-.256,27.30314,7.78127,52.78182,18.55148,77.47305a264.946,264.946,0,0,0,29.95,52.07319c4.1849,5.64336,4.63475,4.43659,10.02958,12.52885,3.45976-.37239-2.06448,2.33761.61436,1.58275,3.53915,3.88022,7.17468,7.96942,10.935,11.94046,1.62052,1.71137,3.99428,3.35181.86462,5.42355-2.28022,1.5094-4.51539,6.15942-7.80907,2.09177"/><g class="cls-3"><path class="cls-2" d="M149.57345,89.39207c-19.48969.53777-39.46645,2.20059-59.17721,6.57589-2.60564.5784-6.67669,4.68608-8.20687-1.80352-1.25023-5.30228,1.24414-7.14312,5.98234-8.31292,31.155-7.69167,62.74159-9.31648,94.56075-6.528,25.654,2.24818,50.68077,7.45659,74.0495,18.84493,14.33332,6.98508,27.15317,15.82093,35.51038,29.95487,2.25011,3.80546,4.14963,7.77449,4.70668,12.12448,1.52791,11.93072.92528,22.47075.77917,36.04725-.84559,11.215-10.66109,21.08893-22.27368,20.84831a22.64224,22.64224,0,0,1-22.1532-22.52523c-.10031-12.23863,9.29323-22.71268,21.9283-22.31727,9.11676.28534,8.76248-4.43962,7.49521-10.16131-2.12868-9.611-8.63441-16.425-16.153-22.11921-18.79768-14.2365-40.73125-20.97406-63.4478-25.48083C185.70942,91.07465,167.995,89.72386,149.57345,89.39207Z"/></g><g class="cls-4"><path class="cls-2" d="M181.89019,226.94005c-15.28892,17.40074-31.87852,33.34013-53.17483,43.12807-19.86409,9.12971-39.7073,12.47767-57.07842-5.64576-2.0774-2.16735-4.5674-2.0928-7.1184-2.551-13.327-2.39383-21.49307-15.18292-17.95249-27.94433,3.59134-12.94433,17.10118-20.34386,29.50283-15.17576,11.3333,4.72288,20.07471,19.3087,11.80246,31.4865-5.57826,8.21184-.36175,9.678,5.24211,11.56792,9.117,3.0748,17.85906.50513,26.3867-2.58829,11.07782-4.01845,20.70723-10.62159,29.61662-18.15139,38.6026-32.62509,63.60643-74.19354,79.69272-121.62444.92924-2.74-.76377-8.49309,6.13015-6.53322,6.5233,1.85448,4.87473,5.71443,3.58375,10.10429-9.79836,33.31911-25.7937,63.47282-46.52191,91.19475"/></g><g class="cls-3"><path class="cls-2" d="M11.21011,146.67787c.77074-19.48718,13.51629-30.70268,27.98034-40.70962a25.23154,25.23154,0,0,1,6.01785-3.46537c2.17-.728,4.63868-5.28705,6.82384-.61277,1.56357,3.34463,2.30606,6.95784-2.63646,9.386A72.73372,72.73372,0,0,0,31.05717,124.4499c-13.90791,13.4303-14.73056,29.40369-2.10934,44.12753a71.09225,71.09225,0,0,0,22.75181,17.2893c3.74673,1.85763,6.00757,4.54226,4.02506,8.11372-2.17024,3.90966-5.26416.093-7.28466-.939C35.35181,186.356,23.64333,177.95393,15.9502,164.92006A36.06859,36.06859,0,0,1,11.21011,146.67787Z"/></g><g class="cls-4"><path class="cls-2" d="M246.331,74.21852c.02693,1.23388,1.01857,8.17551-3.54325,8.15542-5.51854-.02431-6.76159-3.65484-6.50542-8.90094a61.60455,61.60455,0,0,0-3.51024-24.84329c-5.70327-15.19454-17.55368-22.13062-33.51691-19.8385a69.095,69.095,0,0,0-28.8605,11.533c-3.542,2.3776-6.91672,2.81092-8.90283-.682-2.16205-3.80228,2.54262-4.51191,4.55834-5.84248,10.253-6.768,21.18826-11.97213,33.61262-13.48409,20.3372-2.4749,37.53761,8.72933,43.001,28.4641A108.6766,108.6766,0,0,1,246.331,74.21852Z"/></g><path class="cls-2" d="M245.24276,222.99254a68.1599,68.1599,0,0,1-4.433,26.44871c-8.12307,20.43021-26.47409,29.7342-47.80553,24.19365a92.07741,92.07741,0,0,1-25.45939-11.03362c-1.703-1.05682-6.38512-1.42185-3.15659-5.13764,2.00193-2.304,4.2444-5.91395,8.6658-2.866,6.49692,4.47879,13.78079,7.41751,21.31581,9.69979,18.02383,5.4591,33.25305-2.26049,39.39181-20.06154a73.04987,73.04987,0,0,0,3.8144-27.44834c-.18281-3.90936-.43731-8.52832,4.8007-8.32821,4.60886.1761,2.12526,4.93242,2.75876,7.58885C245.65981,218.24656,245.24276,220.66927,245.24276,222.99254Z"/><g class="cls-4"><path class="cls-2" d="M72.64337,165.20141c4.02811,2.59136,3.16192,5.77706,2.21848,8.85283a179.89888,179.89888,0,0,0-7.42685,34.0775c-.19208,1.83989.1676,4.83017-2.7747,4.42265-2.8579-.3958-1.69548-3.27132-1.51989-5.01785A172.37518,172.37518,0,0,1,72.64337,165.20141Z"/></g><path class="cls-2" d="M178.31034,68.86113c-3.75976,1.98364-6.04018.68995-8.1812-1.63046-8.46524-9.17456-17.33435-17.9101-27.59328-25.12416-1.33993-.94223-3.38235-1.99958-2.03472-4.0228,1.39933-2.1008,3.08259-.47577,4.41415.45122A183.12973,183.12973,0,0,1,178.31034,68.86113Z"/><g class="cls-3"><path class="cls-2" d="M208.40879,208.471c.456-5.46339,3.76885-6.01845,6.8957-6.72843a184.53485,184.53485,0,0,0,33.20834-10.54717c1.83573-.80186,4.60194-3.09,5.91812.24528,1.16987,2.96439-2.33888,2.81191-3.85195,3.51157C237.364,201.063,223.51321,205.19284,208.40879,208.471Z"/></g><g class="cls-4"><path class="cls-2" d="M90.6672,134.952c-2.84773-11.712,8.83692-32.18341,19.00852-33.34233C103.92023,111.353,96.9164,124.37313,90.6672,134.952Z"/></g><path class="cls-2" d="M214.49123,132.45077c-5.66889-10.10839-10.86784-19.37884-16.12753-28.75759C208.32024,104.51491,218.90982,122.24667,214.49123,132.45077Z"/><g class="cls-4"><path class="cls-2" d="M126.52624,69.07063c4.61063-4.89555,8.61724-9.01353,12.45895-13.28,2.29975-2.554,4.30505-2.31191,6.53261-.00527,2.84857,2.94971-.37707,4.15493-1.77688,5.42245C139.22728,65.2949,135.93018,71.93346,126.52624,69.07063Z"/></g><path class="cls-2" d="M233.80617,163.62428c3.21326,5.49255,4.10648,11.56433,5.89048,17.32822.8134,2.628.28688,4.49182-2.54385,5.41624-3.38033,1.10393-4.071-1.21512-4.48223-3.58223C231.58655,176.54742,226.939,170.20055,233.80617,163.62428Z"/><g class="cls-3"><path class="cls-2" d="M99.27328,209.75514c-6.85483-1.70491-12.93205-3.26835-19.03751-4.71243-2.92154-.691-3.62436-2.35017-2.75747-5.06.86647-2.70845,2.736-2.52449,4.81516-1.80174C88.55613,200.35811,96.451,199.86125,99.27328,209.75514Z"/></g><path class="cls-1" d="M201.68123,157.1488c-.24709-.057-.59988-.15444-.84217-.199a24.46554,24.46554,0,0,0-2.77705-.22376,27.0856,27.0856,0,0,1-5.19576-.85245,3.25675,3.25675,0,0,1-1.24918-1.25744l-1.16957-.34045a37.63817,37.63817,0,0,0-6.03313-26.07016c.29923-.2718.86618-.77354,1.02607-.92111a2.29118,2.29118,0,0,1,.5436-1.64041,27.10877,27.10877,0,0,1,4.30832-3.02687,24.08573,24.08573,0,0,0,2.40708-1.4043c.1867-.13865.442-.35828.63763-.51477a2.91156,2.91156,0,1,0-3.60752-4.53c-.19767.1558-.46673.36034-.64244.51271a24.02516,24.02516,0,0,0-1.91427,2.02477,27.13461,27.13461,0,0,1-3.90541,3.5334,3.21911,3.21911,0,0,1-1.75709.19081l-1.1023.78726a37.96216,37.96216,0,0,0-24.04469-11.61806c-.02678-.38508-.05969-1.08239-.07-1.29311a2.295,2.295,0,0,1-.94514-1.44823,27.13407,27.13407,0,0,1,.32808-5.2548,24.10006,24.10006,0,0,0,.39466-2.7537c.00893-.23336-.00481-.57242-.00481-.82432a2.91155,2.91155,0,1,0-5.79359.00275c0,.02745.00618.05353.00686.081-.00274.24022-.01441.53124-.00686.74127a24.34741,24.34741,0,0,0,.39535,2.75575,27.09443,27.09443,0,0,1,.3226,5.25343,3.15794,3.15794,0,0,1-.94032,1.49765l-.06864,1.22584a37.78656,37.78656,0,0,0-5.237.8051,37.262,37.262,0,0,0-18.9258,10.813q-.52849-.36446-1.0474-.74265a2.28766,2.28766,0,0,1-1.72-.16678,27.031,27.031,0,0,1-3.90542-3.5286,24.199,24.199,0,0,0-1.906-2.02477c-.1764-.151-.44613-.35691-.64382-.51409a3.4524,3.4524,0,0,0-2.01927-.76187,2.79074,2.79074,0,0,0-2.30824,1.022,3.0701,3.0701,0,0,0,.71245,4.27056l.04461.03157c.18944.15511.4228.35348.59847.48183a24.1976,24.1976,0,0,0,2.40159,1.40566,27.02,27.02,0,0,1,4.30762,3.02824,3.21894,3.21894,0,0,1,.58271,1.6706l.92727.82913a37.48432,37.48432,0,0,0-5.91021,26.132l-1.21281.35279a4.00489,4.00489,0,0,1-1.24506,1.254,27.03513,27.03513,0,0,1-5.19235.8559,24.20132,24.20132,0,0,0-2.77909.22376c-.22238.04117-.53125.11942-.77353.17982l-.0254.00549-.04118.01236a2.90744,2.90744,0,1,0,1.28693,5.64462l.04324-.00686c.01923-.00409.0357-.01372.05492-.01716.23885-.05422.53948-.11187.74951-.16885a24.42325,24.42325,0,0,0,2.59857-.99592,27.13032,27.13032,0,0,1,5.05023-1.486,3.21229,3.21229,0,0,1,1.66513.58822l1.26292-.2162a37.69655,37.69655,0,0,0,16.70613,20.85658l-.52781,1.2629a2.87446,2.87446,0,0,1,.25876,1.63834,28.29665,28.29665,0,0,1-2.62192,4.7112,24.148,24.148,0,0,0-1.55324,2.31442c-.11529.2183-.2615.55252-.372.78108a2.90881,2.90881,0,1,0,5.23078,2.48189l.0048-.00548v-.00687c.10982-.22646.26562-.52369.35828-.73582a23.955,23.955,0,0,0,.836-2.65486,20.25977,20.25977,0,0,1,2.243-5.204,2.3542,2.3542,0,0,1,1.2485-.60949l.65685-1.18741a37.48712,37.48712,0,0,0,26.73112.06795c.184.32808.52714.95542.61774,1.114a2.28892,2.28892,0,0,1,1.4791.89914,26.978,26.978,0,0,1,1.98908,4.87043,24.20917,24.20917,0,0,0,.8408,2.65485c.094.21414.24709.51546.35828.74265a2.91019,2.91019,0,1,0,5.237-2.47571c-.11051-.22857-.26289-.56283-.37751-.77972a24.0608,24.0608,0,0,0-1.55325-2.30891,27.02469,27.02469,0,0,1-2.56837-4.59864,2.27459,2.27459,0,0,1,.22239-1.709,9.96576,9.96576,0,0,1-.48251-1.16889A37.69516,37.69516,0,0,0,189.035,160.50371c.37476.05969,1.02747.17365,1.23957.21689a2.29045,2.29045,0,0,1,1.61981-.60194,27.096,27.096,0,0,1,5.05165,1.486,24.11419,24.11419,0,0,0,2.59992,1.00347c.2093.0549.50791.1071.74813.15992.01991.00549.03774.01441.057.01923l.04118.00617a2.90743,2.90743,0,1,0,1.289-5.64466ZM174.158,127.64406l-12.38,8.77654-.04324-.01991a2.55533,2.55533,0,0,1-4.05851-1.94859l-.01372-.00618-.86-15.17136a30.09708,30.09708,0,0,1,17.35474,8.3695Zm-23.32127,16.62922h4.659l2.89646,3.62125-1.03847,4.517-4.18407,2.01311-4.19643-2.01792-1.04053-4.51832Zm-4.38313-24.46749a30.65887,30.65887,0,0,1,3.0907-.53124l-.86139,15.194-.06313.03019a2.55328,2.55328,0,0,1-4.05231,1.95751l-.024.01372-12.46025-8.83484a29.83415,29.83415,0,0,1,14.3704-7.82936Zm-18.8887,13.50833,11.3758,10.174-.01236.06245a2.55327,2.55327,0,0,1-1.00347,4.38862l-.01167.04943-14.5818,4.20812a29.82533,29.82533,0,0,1,4.23346-18.88188Zm15.23109,27.029-5.7936,13.99908a29.99147,29.99147,0,0,1-12.03608-15.06431l14.95108-2.53887.0254.03295a2.50952,2.50952,0,0,1,.501-.04461,2.55328,2.55328,0,0,1,2.30893,3.5588Zm17.10147,18.00332a29.95073,29.95073,0,0,1-16.34576-.84011l7.353-13.29623h.01235a2.5567,2.5567,0,0,1,4.50049-.00409h.0549l7.37156,13.31819q-1.43519.4791-2.94659.823Zm9.5-3.94795L163.54411,160.256l.01784-.0254a2.55672,2.55672,0,0,1,1.23752-3.31033,2.5293,2.5293,0,0,1,.97807-.254,2.46351,2.46351,0,0,1,.58683.04325l.0254-.03158,15.08422,2.54915a29.87734,29.87734,0,0,1-12.07656,15.17208Zm13.66071-22.25123-14.65524-4.22115-.01373-.06176a2.55671,2.55671,0,0,1-1.00209-4.39l-.00549-.0295,11.31264-10.12456a30.39144,30.39144,0,0,1,4.36321,18.827Z"/></svg>