<svg id="Layer_1" data-name="Layer 1" xmlns="http://www.w3.org/2000/svg" viewBox="0 0 758.02881 246.69717"><defs><style>.cls-1{fill:#326ce5;}.cls-2{fill:#75c5f0;}.cls-3{opacity:0.49;}.cls-4{opacity:0.75;}</style></defs><title>kubeadm-horizontal-color</title><path class="cls-1" d="M291.69415,128.39313q2.49926-2.71251,5.16824-5.65085,2.66735-2.93833,5.16742-5.82148,2.4993-2.88315,4.71323-5.4819,2.21444-2.59959,3.80487-4.52169h20.14435q-6.02851,6.923-11.76758,13.21711-5.74247,6.29572-12.56387,12.9896a78.3456,78.3456,0,0,1,7.04934,7.34544q3.63722,4.27329,7.04935,8.82758,3.41012,4.55682,6.25308,9.11027,2.84047,4.5568,4.77512,8.314H312.0083q-1.81673-2.96347-4.14279-6.55419-2.32608-3.58824-4.93656-7.17814-2.61213-3.58828-5.50363-6.89379a46.25888,46.25888,0,0,0-5.73117-5.58561v26.21173H274.75332V81.22245l16.94083-2.73008Z"/><path class="cls-1" d="M390.49628,164.67542a94.13693,94.13693,0,0,1-11.1428,2.33026,91.63673,91.63673,0,0,1-14.32538,1.08065,33.99931,33.99931,0,0,1-12.67761-2.04756,19.22476,19.22476,0,0,1-8.01541-5.74118,22.38011,22.38011,0,0,1-4.20636-8.81085,47.34423,47.34423,0,0,1-1.25049-11.25655V106.91727H355.8183v31.267q0,8.1852,2.16046,11.82362,2.15794,3.641,8.07229,3.63837,1.818,0,3.86591-.17062,2.0463-.17064,3.6384-.39813V106.91727h16.94085Z"/><path class="cls-1" d="M462.00934,136.81934a37.80724,37.80724,0,0,1-2.10355,12.96116,27.38279,27.38279,0,0,1-6.08243,9.89151,26.73518,26.73518,0,0,1-9.77774,6.31A36.7206,36.7206,0,0,1,430.857,168.2002q-3.07,0-6.42453-.28434-3.35481-.286-6.59433-.73939-3.23944-.4566-6.1962-1.08066-2.9571-.62224-5.23013-1.30649V81.22245l16.9408-2.73008V108.2823a31.669,31.669,0,0,1,5.91183-1.9338,30.352,30.352,0,0,1,6.59519-.68251,26.988,26.988,0,0,1,11.2557,2.21819,22.05884,22.05884,0,0,1,8.186,6.31,28.35042,28.35042,0,0,1,5.00262,9.83463A44.84785,44.84785,0,0,1,462.00934,136.81934Zm-17.28211-.455q0-16.3729-12.052-16.37207a19.97783,19.97783,0,0,0-5.17242.68251,14.76256,14.76256,0,0,0-4.15033,1.70462v30.812q1.2496.22836,3.18341.39815,1.93212.17063,4.20718.17062a12.1744,12.1744,0,0,0,10.4595-4.776,20.75906,20.75906,0,0,0,3.5246-12.61995Z"/><path class="cls-1" d="M472.24127,137.27429a36.57037,36.57037,0,0,1,2.444-13.92806,29.84441,29.84441,0,0,1,6.42453-9.94838,26.68407,26.68407,0,0,1,9.1521-6.02557,28.64446,28.64446,0,0,1,10.6308-2.04756q12.732,0,20.12427,7.78875,7.38986,7.78873,7.39062,22.90948c0,.987-.04016,2.066-.11377,3.24029q-.11544,1.764-.22748,3.12653h-38.43a11.25592,11.25592,0,0,0,4.88974,8.30063,19.64988,19.64988,0,0,0,11.59692,3.06966,48.94769,48.94769,0,0,0,9.1521-.853,34.54232,34.54232,0,0,0,7.33371-2.10275l2.27423,13.75744a23.45561,23.45561,0,0,1-3.63928,1.36336,47.65373,47.65373,0,0,1-5.05865,1.19441q-2.78778.51188-5.96955.853a59.72385,59.72385,0,0,1-6.36682.34126,37.67,37.67,0,0,1-14.04181-2.38881,27.3209,27.3209,0,0,1-9.89151-6.53746,25.9314,25.9314,0,0,1-5.79806-9.83462A38.9565,38.9565,0,0,1,472.24127,137.27429Zm39.79352-6.48057a17.58461,17.58461,0,0,0-.73941-4.2072,10.54538,10.54538,0,0,0-1.93213-3.63838,10.32685,10.32685,0,0,0-3.29718-2.61464,10.74283,10.74283,0,0,0-4.94574-1.02378,11.3865,11.3865,0,0,0-4.88889.96691,10.09613,10.09613,0,0,0-3.41092,2.55777,11.437,11.437,0,0,0-2.10354,3.69529,24.18156,24.18156,0,0,0-1.08066,4.26407Z"/><path class="cls-1" d="M562.97021,105.32472a39.20942,39.20942,0,0,1,12.50617,1.7063,19.44092,19.44092,0,0,1,8.01623,4.888,18.0107,18.0107,0,0,1,4.2641,7.73186,38.18053,38.18053,0,0,1,1.24964,10.119v35.24674q-3.6384.79545-10.119,1.87524a97.29625,97.29625,0,0,1-15.68958,1.08064,49.716,49.716,0,0,1-10.51715-1.02369,22.82346,22.82346,0,0,1-8.12836-3.35405,15.33335,15.33335,0,0,1-5.231-6.08245,20.996,20.996,0,0,1-1.81836-9.209,17.449,17.449,0,0,1,2.10278-8.8694,16.2041,16.2041,0,0,1,5.62744-5.79806,25.44815,25.44815,0,0,1,8.07312-3.12654,45.29953,45.29953,0,0,1,9.43646-.96691,54.09247,54.09247,0,0,1,5.855.28434,26.25581,26.25581,0,0,1,4.15033.73939v-1.59254a9.38,9.38,0,0,0-2.61462-6.9356q-2.61713-2.61213-9.09521-2.61465a58.17651,58.17651,0,0,0-8.52814.62564,36.81087,36.81087,0,0,0-7.27686,1.76151l-2.15967-13.642q1.47547-.45417,3.69532-.96691,2.21823-.51189,4.83282-.91,2.6121-.39646,5.51367-.68252Q560.01348,105.328,562.97021,105.32472Zm1.365,49.57294q2.49921,0,4.7743-.11375a32.9508,32.9508,0,0,0,3.63836-.34127V141.59525a30.96261,30.96261,0,0,0-3.0697-.455,34.005,34.005,0,0,0-3.7522-.22749,33.64919,33.64919,0,0,0-4.48993.28433,11.75808,11.75808,0,0,0-3.69531,1.079,6.35242,6.35242,0,0,0-2.50256,2.16131,6.00818,6.00818,0,0,0-.90833,3.41092,5.8089,5.8089,0,0,0,2.67151,5.51369,14.75144,14.75144,0,0,0,7.33392,1.53566Z"/><path class="cls-1" d="M657.111,164.78915q-2.2759.68-5.231,1.30649-2.95587.6273-6.19623,1.08064-3.2394.45168-6.5943.7394-3.35495.281-6.4237.28433a37.631,37.631,0,0,1-13.18866-2.16131,26.46439,26.46439,0,0,1-9.77771-6.1962,26.83778,26.83778,0,0,1-6.08246-9.77776,37.28079,37.28079,0,0,1-2.10443-12.90428,44.18162,44.18162,0,0,1,1.82013-13.13171,28.56457,28.56457,0,0,1,5.22931-9.94838,22.40249,22.40249,0,0,1,8.35748-6.25308,28.00525,28.00525,0,0,1,11.31177-2.16131,26.62252,26.62252,0,0,1,6.31164.68252,34.15063,34.15063,0,0,1,5.62745,1.9338V81.22245l16.94085-2.73008Zm-38.31641-28.42488a20.74816,20.74816,0,0,0,3.52466,12.61991,12.17185,12.17185,0,0,0,10.46027,4.776q2.27343,0,4.20721-.17063,1.93214-.17066,3.18341-.39814v-30.812a14.7732,14.7732,0,0,0-4.15033-1.70463,19.988,19.988,0,0,0-5.17242-.68252Q618.79287,119.99219,618.79455,136.36427Z"/><path class="cls-1" d="M705.88428,135.0009q0-8.18772-2.10444-11.5978a7.80014,7.80014,0,0,0-7.21832-3.41092q-1.59594,0-3.29718.17063-1.70636.17064-3.29718.39814v46.16029H673.02637V108.96315q2.158-.56716,5.05865-1.19273,2.90067-.62481,6.1394-1.13755,3.242-.51188,6.65119-.79627,3.41262-.281,6.708-.28433a28.22776,28.22776,0,0,1,10.51715,1.64942,23.76868,23.76868,0,0,1,6.65118,3.92276,31.68783,31.68783,0,0,1,17.05463-5.57223,29.89134,29.89134,0,0,1,11.76678,1.99068,17.71951,17.71951,0,0,1,7.33374,5.62743,21.30266,21.30266,0,0,1,3.7522,8.64022,55.75491,55.75491,0,0,1,1.0238,11.14279v33.76788H738.74219V135.0009q0-8.18772-2.10279-11.5978a7.803,7.803,0,0,0-7.22-3.41092,15.2501,15.2501,0,0,0-3.80908.68252,14.88376,14.88376,0,0,0-4.03656,1.70463,26.10241,26.10241,0,0,1,1.0238,5.51535q.22578,2.89818.22748,6.1962v32.63036H705.88428Z"/><path class="cls-2" d="M86.3035,177.61584C63.234,144.5307,45.86691,109.20867,43.36688,68.098c-.65119-10.70848.74189-21.20325,5.24061-31.10607,3.15109-6.93634,7.34249-13.68954,14.7172-15.84337C72.49179,18.47125,77.26728,10.0964,85.714,7.43564a17.06216,17.06216,0,0,1,10.943,0,21.48963,21.48963,0,0,1,4.91016,2.076c6.90789,4.50287,10.37237,12.05364,8.971,19.64408A19.49276,19.49276,0,0,1,95.26947,44.4914c-7.53211,1.61677-15.29819-1.75456-19.78372-8.58842-3.83921-5.84914-6.10276-6.16419-11.186-.85223-7.891,8.24606-9.51479,18.81374-9.61533,29.539-.21732,23.17611,6.60509,44.80355,15.74732,65.76256a224.89753,224.89753,0,0,0,25.42289,44.202c3.55233,4.79033,3.93418,3.766,8.51355,10.635,2.93679-.3161-1.75242,1.98427.5215,1.34351,3.00418,3.2937,6.09018,6.7648,9.28211,10.1356,1.37558,1.45268,3.39052,2.84516.73393,4.60375-1.93555,1.28125-3.83287,5.22839-6.62868,1.77558"/><g class="cls-3"><path class="cls-2" d="M120.56444,78.19178c-16.54371.45649-33.50088,1.868-50.23223,5.58191-2.2118.491-5.66749,3.97775-6.96637-1.5309-1.06122-4.50079,1.05609-6.06341,5.07807-7.05638,26.44571-6.529,53.25786-7.90824,80.26738-5.54127,21.77622,1.90836,43.02009,6.32949,62.85651,15.99642,12.16675,5.92925,23.04881,13.42951,30.14278,25.427a27.24055,27.24055,0,0,1,3.99525,10.2918c1.297,10.12733.78542,19.07416.66138,30.5985-.71776,9.51981-9.04961,17.90122-18.90688,17.697a19.21975,19.21975,0,0,1-18.80462-19.12041c-.08515-10.3887,7.88852-19.27954,18.61372-18.94389,7.73871.2422,7.438-3.76855,6.36227-8.62537-1.80691-8.15825-7.32926-13.94225-13.71139-18.77577C203.964,92.10586,185.34582,86.38672,166.063,82.56118,151.23827,79.62,136.20151,78.47343,120.56444,78.19178Z"/></g><g class="cls-4"><path class="cls-2" d="M147.99633,194.94862c-12.97791,14.77053-27.0599,28.30059-45.13716,36.609-16.86151,7.74969-33.70531,10.59161-48.4507-4.79238-1.76339-1.83973-3.877-1.77646-6.04241-2.16539A18.91826,18.91826,0,0,1,33.1272,200.87946c3.04848-10.98774,14.51622-17.26877,25.04331-12.88187,9.62021,4.009,17.0403,16.39007,10.01845,26.72713-4.73508,6.97058-.30707,8.21507,4.44973,9.81936,7.73889,2.61,15.15956.42879,22.3982-2.19706,9.40335-3.411,17.57721-9.01607,25.1399-15.40769,32.7676-27.69363,53.992-62.97877,67.64672-103.24023.78877-2.32581-.64832-7.20932,5.20353-5.54569,5.53728,1.57416,4.1379,4.85065,3.042,8.577-8.31729,28.28274-21.89483,53.87855-39.48987,77.41015"/></g><g class="cls-3"><path class="cls-2" d="M3.1155,126.81852c.65424-16.54159,11.47322-26.06181,23.751-34.55615a21.4175,21.4175,0,0,1,5.10821-2.94155c1.842-.61792,3.93752-4.48789,5.79238-.52015,1.32723,2.83908,1.95749,5.90612-2.238,7.96724a61.7398,61.7398,0,0,0-15.56654,11.18251c-11.80564,11.40024-12.50393,24.95916-1.79048,37.45742a60.34641,60.34641,0,0,0,19.31274,14.67592c3.18039,1.57684,5.0995,3.85566,3.41665,6.88728-1.84219,3.31869-4.46845.079-6.18354-.79711C23.60805,160.49908,13.66937,153.367,7.1391,142.3033A30.61643,30.61643,0,0,1,3.1155,126.81852Z"/></g><g class="cls-4"><path class="cls-2" d="M202.69662,65.3118c.02284,1.04737.86459,6.93974-3.00768,6.92269-4.68439-.02064-5.73953-3.1024-5.52208-7.55552a52.29255,52.29255,0,0,0-2.97966-21.08809c-4.84119-12.8978-14.90033-18.78545-28.45064-16.8398a58.65092,58.65092,0,0,0-24.49807,9.78974c-3.00661,2.01822-5.87122,2.386-7.55712-.57891-1.83523-3.22754,2.1583-3.82991,3.86933-4.95935,8.7032-5.745,17.98553-10.16248,28.53189-11.4459,17.26312-2.10081,31.86358,7.40984,36.50114,24.16159A92.24928,92.24928,0,0,1,202.69662,65.3118Z"/></g><path class="cls-2" d="M201.7728,191.59779a57.85705,57.85705,0,0,1-3.76289,22.45084c-6.89522,17.34207-22.47238,25.23972-40.57947,20.53665a78.15926,78.15926,0,0,1-21.61105-9.36584c-1.44562-.89707-5.42-1.20693-2.67946-4.36106,1.69932-1.95578,3.60284-5.02,7.35593-2.43275a64.26883,64.26883,0,0,0,18.09379,8.23361c15.29942,4.63393,28.22667-1.91881,33.43753-17.02913a62.00817,62.00817,0,0,0,3.23783-23.29936c-.15519-3.31844-.37122-7.23923,4.075-7.06937,3.9122.14948,1.804,4.18685,2.34175,6.44176C202.12682,187.5692,201.7728,189.62572,201.7728,191.59779Z"/><g class="cls-4"><path class="cls-2" d="M55.26277,142.54211c3.41924,2.19967,2.684,4.90383,1.88314,7.51467a152.70763,152.70763,0,0,0-6.30424,28.9265c-.163,1.56178.14227,4.10006-2.35527,3.75413-2.42592-.336-1.43921-2.77684-1.29017-4.25937A146.32033,146.32033,0,0,1,55.26277,142.54211Z"/></g><path class="cls-2" d="M144.95762,60.76421c-3.19145,1.6838-5.12718.58566-6.94457-1.384-7.18568-7.78777-14.71417-15.20289-23.42241-21.3265-1.13739-.7998-2.87109-1.69733-1.72715-3.41474,1.18782-1.78325,2.61663-.40384,3.74691.383A155.44969,155.44969,0,0,1,144.95762,60.76421Z"/><g class="cls-3"><path class="cls-2" d="M170.50649,179.27127c.387-4.63756,3.19917-5.10873,5.85336-5.71139a156.64058,156.64058,0,0,0,28.18877-8.95289c1.55824-.68064,3.90633-2.62294,5.02356.20821.993,2.5163-1.98534,2.38687-3.2697,2.98077C195.08492,172.983,183.3278,176.48862,170.50649,179.27127Z"/></g><g class="cls-4"><path class="cls-2" d="M70.56221,116.86511c-2.41728-9.94169,7.50117-27.3187,16.13528-28.30245C81.812,96.83316,75.8668,107.88526,70.56221,116.86511Z"/></g><path class="cls-2" d="M175.66953,114.74192,161.97977,90.33121C170.43134,91.02873,179.42023,106.08023,175.66953,114.74192Z"/><g class="cls-4"><path class="cls-2" d="M101.00094,60.942c3.91368-4.15552,7.31468-7.651,10.57567-11.27259,1.95214-2.168,3.65433-1.96245,5.54518-.00447,2.418,2.50384-.32007,3.52689-1.5083,4.60282C111.78216,57.737,108.98344,63.37214,101.00094,60.942Z"/></g><path class="cls-2" d="M192.06493,141.20338c2.72756,4.66233,3.48575,9.81632,5.00011,14.709.69044,2.23075.24351,3.81287-2.15935,4.59755-2.86937.93708-3.4556-1.03144-3.80472-3.04075C190.18082,152.17313,186.23571,146.78561,192.06493,141.20338Z"/><g class="cls-3"><path class="cls-2" d="M77.86742,180.3613c-5.81868-1.44721-10.9773-2.77432-16.15988-4.00011-2.47993-.58656-3.07652-1.99493-2.34067-4.29513.7355-2.299,2.32247-2.1429,4.08732-1.52941C68.77024,172.38469,75.47171,171.96294,77.86742,180.3613Z"/></g><path class="cls-1" d="M164.79584,135.7067c-.20974-.04836-.5092-.13108-.71487-.169a20.76342,20.76342,0,0,0-2.35729-.18994,22.99222,22.99222,0,0,1-4.41038-.7236,2.76475,2.76475,0,0,1-1.06036-1.06739l-.99279-.289a31.949,31.949,0,0,0-5.12118-22.12951c.254-.23072.73524-.65661.871-.78188a1.94483,1.94483,0,0,1,.46143-1.39245,23.0104,23.0104,0,0,1,3.65709-2.56934,20.44553,20.44553,0,0,0,2.04324-1.192c.15846-.1177.3752-.30413.54124-.437a2.47146,2.47146,0,1,0-3.06222-3.84526c-.16779.13225-.39618.30587-.54534.43521a20.39249,20.39249,0,0,0-1.62492,1.71871,23.03186,23.03186,0,0,1-3.31508,2.99931,2.73245,2.73245,0,0,1-1.4915.162l-.93568.66826A32.224,32.224,0,0,0,126.328,97.042c-.02274-.32687-.05068-.91878-.05943-1.09765a1.94819,1.94819,0,0,1-.80228-1.22933,23.033,23.033,0,0,1,.27849-4.46051,20.45293,20.45293,0,0,0,.335-2.33745c.00759-.19809-.00407-.4859-.00407-.69973a2.47146,2.47146,0,1,0-4.91786.00233c0,.02331.00524.04545.00582.06875-.00233.20391-.01223.451-.00582.62922a20.6674,20.6674,0,0,0,.33558,2.33921,22.99894,22.99894,0,0,1,.27383,4.45935,2.68053,2.68053,0,0,1-.79818,1.27127l-.05827,1.04055a32.07254,32.07254,0,0,0-4.44536.6834A31.62961,31.62961,0,0,0,100.40039,106.89q-.44861-.30935-.88907-.63038a1.9418,1.9418,0,0,1-1.46-.14157,22.94512,22.94512,0,0,1-3.31508-2.99524,20.54313,20.54313,0,0,0-1.61792-1.71871c-.14975-.12818-.3787-.303-.54651-.43638a2.93046,2.93046,0,0,0-1.71405-.64671,2.36886,2.36886,0,0,0-1.95933.8675,2.606,2.606,0,0,0,.60476,3.625l.03787.02681c.1608.13166.35889.3.508.409a20.54292,20.54292,0,0,0,2.03859,1.19319,22.93639,22.93639,0,0,1,3.6565,2.5705,2.73257,2.73257,0,0,1,.49463,1.41809l.78711.70379a31.81841,31.81841,0,0,0-5.01686,22.182l-1.02949.29947a3.39939,3.39939,0,0,1-1.05686,1.06443,22.94893,22.94893,0,0,1-4.4075.72651,20.54389,20.54389,0,0,0-2.359.18994c-.18877.03495-.451.10137-.65661.15264l-.02156.00465-.035.01048a2.468,2.468,0,1,0,1.0924,4.79142l.03669-.00583c.01632-.00347.03032-.01165.04663-.01458.20274-.046.45794-.095.6362-.14332a20.73182,20.73182,0,0,0,2.20579-.84538,23.02833,23.02833,0,0,1,4.28686-1.26136,2.72667,2.72667,0,0,1,1.41343.49932l1.072-.18352a31.99843,31.99843,0,0,0,14.18091,17.704l-.448,1.072a2.44,2.44,0,0,1,.21964,1.3907,24.01976,24.01976,0,0,1-2.2256,3.99909,20.495,20.495,0,0,0-1.31846,1.96458c-.09786.1853-.222.469-.31578.663a2.46913,2.46913,0,1,0,4.44012,2.10673l.00408-.00465v-.00583c.09322-.19223.22546-.44454.30412-.62461a20.33338,20.33338,0,0,0,.70962-2.25355,17.198,17.198,0,0,1,1.904-4.41739,1.9984,1.9984,0,0,1,1.05978-.51736l.55757-1.00792a31.8208,31.8208,0,0,0,22.69057.05767c.15614.27848.44745.811.52435.94559a1.943,1.943,0,0,1,1.25553.76323,22.9,22.9,0,0,1,1.68841,4.13425,20.55285,20.55285,0,0,0,.71372,2.25355c.07982.18177.20975.43755.30412.63039a2.47029,2.47029,0,1,0,4.44537-2.1015c-.09381-.194-.22314-.47775-.32045-.66185a20.42246,20.42246,0,0,0-1.31846-1.95992,22.93845,22.93845,0,0,1-2.18015-3.90353,1.93079,1.93079,0,0,1,.18877-1.45071,8.46191,8.46191,0,0,1-.40958-.99221,31.99733,31.99733,0,0,0,14.17388-17.831c.31811.05066.87217.1474,1.0522.1841a1.9442,1.9442,0,0,1,1.375-.511,23.00078,23.00078,0,0,1,4.288,1.26136,20.47028,20.47028,0,0,0,2.20693.85179c.17766.04661.43113.09093.63505.13576.01691.00465.032.01223.04836.01632l.035.00524a2.468,2.468,0,1,0,1.09416-4.79145Zm-23.3629-25.04493-10.50866,7.44992-.03672-.0169a2.16906,2.16906,0,0,1-3.445-1.654l-.01165-.00524-.73-12.87813a25.54759,25.54759,0,0,1,14.73147,7.1044ZM121.6368,124.77739h3.95482l2.45863,3.07389-.88148,3.83419-3.55162,1.70882L120.055,131.6814l-.88325-3.83536Zm-3.72059-20.76909a26.02429,26.02429,0,0,1,2.62352-.45094l-.73118,12.89737-.05359.02562a2.16733,2.16733,0,0,1-3.43978,1.66163l-.02039.01165L105.718,110.65421A25.32451,25.32451,0,0,1,117.91621,104.0083Zm-16.0336,11.46647,9.65628,8.63612-.01049.053a2.16732,2.16732,0,0,1-.85179,3.72525l-.0099.042-12.37768,3.572a25.317,25.317,0,0,1,3.59355-16.02778Zm12.92884,22.94343-4.91787,11.883A25.458,25.458,0,0,1,99.67685,137.514L112.368,135.3589l.02156.028a2.13074,2.13074,0,0,1,.4253-.03786,2.16734,2.16734,0,0,1,1.95992,3.02088Zm14.51648,15.282a25.4236,25.4236,0,0,1-13.875-.71314l6.24156-11.28644h.0105a2.17022,2.17022,0,0,1,3.82021-.00346h.04661l6.2573,11.30507q-1.21825.40668-2.50119.69856Zm8.064-3.35122-4.96858-12.0048.01513-.02156a2.17026,2.17026,0,0,1,1.05048-2.81,2.147,2.147,0,0,1,.83021-.21558,2.09071,2.09071,0,0,1,.49813.03672l.02156-.02681,12.80415,2.16383a25.36123,25.36123,0,0,1-10.25113,12.87872Zm11.59582-18.88783-12.44-3.58309-.01164-.05243a2.17026,2.17026,0,0,1-.85063-3.72642l-.00466-.025L145.2835,115.48a25.79757,25.79757,0,0,1,3.70369,15.98117Z"/></svg>