<svg id="Layer_1" data-name="Layer 1" xmlns="http://www.w3.org/2000/svg" viewBox="0 0 758.02879 246.69718"><defs><style>.cls-1{fill:#326ce5;}.cls-2{fill:#75c5f0;}.cls-3{opacity:0.49;}.cls-4{opacity:0.75;}</style></defs><title>kubeadm-horizontal-color</title><path class="cls-1" d="M288.05158,128.39313q2.49924-2.71251,5.16824-5.65085,2.66736-2.93835,5.16741-5.82148,2.49926-2.88315,4.71322-5.4819,2.21443-2.59959,3.80488-4.52169h20.14434q-6.0285,6.92305-11.76759,13.21711-5.74245,6.29574-12.56386,12.9896a78.34683,78.34683,0,0,1,7.04934,7.34544q3.6372,4.27328,7.04934,8.82758,3.41009,4.55682,6.25309,9.11028,2.84046,4.55682,4.77511,8.314H308.36572q-1.8167-2.96345-4.1428-6.55419-2.32608-3.58824-4.93654-7.17815-2.61213-3.58826-5.50364-6.89378a46.25883,46.25883,0,0,0-5.73116-5.58561v26.21173H271.11074V81.22245l16.94084-2.73008Z"/><path class="cls-1" d="M386.85369,164.67541a94.13493,94.13493,0,0,1-11.1428,2.33026,91.63773,91.63773,0,0,1-14.32537,1.08066,33.99964,33.99964,0,0,1-12.67761-2.04756,19.22483,19.22483,0,0,1-8.01541-5.74118,22.38022,22.38022,0,0,1-4.20635-8.81085,47.34443,47.34443,0,0,1-1.25048-11.25654V106.91727h16.94006v31.26705q0,8.1852,2.16047,11.82363,2.15794,3.64094,8.07229,3.63837,1.818,0,3.86592-.17063,2.04632-.17062,3.63839-.39813V106.91727h16.94085Z"/><path class="cls-1" d="M458.36677,136.81933a37.80752,37.80752,0,0,1-2.10355,12.96116,27.38281,27.38281,0,0,1-6.08244,9.89151,26.73505,26.73505,0,0,1-9.77774,6.31,36.72021,36.72021,0,0,1-13.18867,2.21818q-3.07006,0-6.42454-.28433-3.35485-.286-6.59433-.73939-3.23948-.45661-6.1962-1.08066-2.95713-.62222-5.23014-1.30649V81.22245L419.71,78.49237V108.2823a31.6682,31.6682,0,0,1,5.91182-1.9338,30.35255,30.35255,0,0,1,6.59517-.68252,26.98813,26.98813,0,0,1,11.2557,2.21819,22.05892,22.05892,0,0,1,8.186,6.31,28.3507,28.3507,0,0,1,5.00263,9.83463A44.84787,44.84787,0,0,1,458.36677,136.81933Zm-17.28211-.455q0-16.37292-12.052-16.37208a19.9782,19.9782,0,0,0-5.17242.68251,14.76264,14.76264,0,0,0-4.15032,1.70463v30.812q1.24962.22835,3.18342.39814,1.93212.17063,4.20718.17063a12.17444,12.17444,0,0,0,10.45951-4.776,20.759,20.759,0,0,0,3.5246-12.61995Z"/><path class="cls-1" d="M468.59868,137.27429a36.57006,36.57006,0,0,1,2.444-13.92806,29.84408,29.84408,0,0,1,6.42454-9.94838,26.68421,26.68421,0,0,1,9.1521-6.02557,28.64426,28.64426,0,0,1,10.6308-2.04756q12.732,0,20.12426,7.78875,7.38981,7.78873,7.39061,22.90948c0,.987-.04015,2.066-.11376,3.2403q-.11543,1.764-.2275,3.12653H485.9937a11.25593,11.25593,0,0,0,4.88974,8.30063,19.64993,19.64993,0,0,0,11.59693,3.06966,48.94715,48.94715,0,0,0,9.15211-.853,34.54185,34.54185,0,0,0,7.33373-2.10276l2.27423,13.75744a23.45792,23.45792,0,0,1-3.63927,1.36336,47.65449,47.65449,0,0,1-5.05866,1.19441q-2.78779.51189-5.96953.853a59.724,59.724,0,0,1-6.36683.34126,37.67,37.67,0,0,1-14.04182-2.38881,27.32091,27.32091,0,0,1-9.8915-6.53746,25.93136,25.93136,0,0,1-5.79806-9.83463A38.95719,38.95719,0,0,1,468.59868,137.27429Zm39.79351-6.48058a17.58376,17.58376,0,0,0-.7394-4.20719,10.545,10.545,0,0,0-1.93212-3.63838,10.32692,10.32692,0,0,0-3.29717-2.61465,10.74278,10.74278,0,0,0-4.94575-1.02377,11.38659,11.38659,0,0,0-4.88888.9669,10.09626,10.09626,0,0,0-3.41092,2.55777,11.437,11.437,0,0,0-2.10354,3.6953,24.18309,24.18309,0,0,0-1.08066,4.26407Z"/><path class="cls-1" d="M559.32765,105.32472a39.20962,39.20962,0,0,1,12.50615,1.7063,19.44105,19.44105,0,0,1,8.01625,4.888,18.01085,18.01085,0,0,1,4.26407,7.73186,38.1815,38.1815,0,0,1,1.24961,10.119v35.24674q-3.63839.79544-10.119,1.87525a97.29691,97.29691,0,0,1-15.68956,1.08065A49.71548,49.71548,0,0,1,549.038,166.9488a22.82343,22.82343,0,0,1-8.12833-3.35405,15.33367,15.33367,0,0,1-5.231-6.08244,20.99591,20.99591,0,0,1-1.81837-9.209,17.449,17.449,0,0,1,2.10276-8.8694,16.2044,16.2044,0,0,1,5.62743-5.79806,25.44826,25.44826,0,0,1,8.07312-3.12654,45.29919,45.29919,0,0,1,9.43649-.9669,54.09072,54.09072,0,0,1,5.855.28433,26.2551,26.2551,0,0,1,4.15032.7394v-1.59254a9.37994,9.37994,0,0,0-2.61465-6.9356q-2.61715-2.61213-9.09523-2.61465a58.17544,58.17544,0,0,0-8.52814.62564,36.81112,36.81112,0,0,0-7.27685,1.76151l-2.15964-13.642q1.47544-.45418,3.69531-.9669,2.21822-.51189,4.83283-.91,2.61215-.39647,5.51368-.68252Q556.37091,105.32805,559.32765,105.32472Zm1.365,49.57294q2.49923,0,4.77429-.11375a32.94982,32.94982,0,0,0,3.63837-.34126V141.59524a30.95963,30.95963,0,0,0-3.06969-.455,34.00164,34.00164,0,0,0-3.75218-.2275,33.64832,33.64832,0,0,0-4.4899.28433,11.75791,11.75791,0,0,0-3.6953,1.079,6.35244,6.35244,0,0,0-2.50257,2.16131,6.00811,6.00811,0,0,0-.90835,3.41092,5.809,5.809,0,0,0,2.67152,5.51368A14.75152,14.75152,0,0,0,560.69269,154.89766Z"/><path class="cls-1" d="M653.46839,164.78916q-2.27591.68-5.231,1.30649-2.95592.62731-6.1962,1.08065-3.23946.45166-6.59431.7394-3.35492.281-6.42371.28433a37.6309,37.6309,0,0,1-13.18866-2.16131,26.46445,26.46445,0,0,1-9.77773-6.1962,26.83814,26.83814,0,0,1-6.08244-9.77775,37.28056,37.28056,0,0,1-2.10444-12.90428A44.18092,44.18092,0,0,1,599.69,124.02875a28.56406,28.56406,0,0,1,5.2293-9.94838,22.40233,22.40233,0,0,1,8.35751-6.25308,28.00521,28.00521,0,0,1,11.31174-2.16131,26.62342,26.62342,0,0,1,6.31163.68252,34.1523,34.1523,0,0,1,5.62743,1.9338V81.22245l16.94085-2.73008ZM615.152,136.36427a20.74782,20.74782,0,0,0,3.52467,12.6199,12.1718,12.1718,0,0,0,10.46027,4.776q2.27338,0,4.20719-.17063,1.93214-.17064,3.18339-.39814v-30.812a14.77349,14.77349,0,0,0-4.15031-1.70463,19.98791,19.98791,0,0,0-5.17242-.68252Q615.15033,119.99218,615.152,136.36427Z"/><path class="cls-1" d="M702.2417,135.0009q0-8.18771-2.10443-11.5978a7.80014,7.80014,0,0,0-7.2183-3.41092q-1.59589,0-3.29717.17063-1.70629.17064-3.29717.39814v46.16029H669.38378V108.96315q2.158-.56716,5.05867-1.19273,2.90071-.62481,6.13938-1.13754,3.242-.51189,6.65121-.79627,3.41259-.281,6.708-.28433a28.22781,28.22781,0,0,1,10.51715,1.64942,23.7693,23.7693,0,0,1,6.65121,3.92276,31.68771,31.68771,0,0,1,17.0546-5.57223,29.891,29.891,0,0,1,11.76676,1.99068,17.71924,17.71924,0,0,1,7.33372,5.62743,21.30236,21.30236,0,0,1,3.75218,8.64022,55.75609,55.75609,0,0,1,1.02378,11.14279v33.76789H735.09962V135.0009q0-8.18771-2.10276-11.5978a7.803,7.803,0,0,0-7.22-3.41092,15.25048,15.25048,0,0,0-3.80906.68252,14.88384,14.88384,0,0,0-4.03656,1.70463,26.10174,26.10174,0,0,1,1.02378,5.51535q.22582,2.89819.2275,6.1962v32.63036H702.2417Z"/><path class="cls-2" d="M88.73189,177.61585C65.6624,144.5307,48.29529,109.20867,45.79526,68.098c-.65119-10.70848.74189-21.20325,5.24061-31.10607,3.15109-6.93634,7.34249-13.68954,14.7172-15.84337,9.1671-2.67731,13.94259-11.05216,22.3893-13.71292a17.06216,17.06216,0,0,1,10.94295,0,21.48963,21.48963,0,0,1,4.91016,2.076c6.90789,4.50287,10.37237,12.05364,8.971,19.64408A19.49274,19.49274,0,0,1,97.69785,44.4914c-7.53211,1.61677-15.29819-1.75456-19.78371-8.58842-3.83922-5.84914-6.10276-6.16419-11.186-.85223-7.891,8.24606-9.51479,18.81374-9.61533,29.539-.21732,23.17611,6.60509,44.80355,15.74732,65.76256a224.89762,224.89762,0,0,0,25.42289,44.202c3.55233,4.79033,3.93418,3.766,8.51355,10.635,2.9368-.3161-1.75242,1.98427.5215,1.34351,3.00419,3.2937,6.09019,6.7648,9.28211,10.1356,1.37558,1.45268,3.39052,2.84516.73393,4.60374-1.93555,1.28125-3.83287,5.22839-6.62868,1.77559"/><g class="cls-3"><path class="cls-2" d="M122.99283,78.19178c-16.54372.45649-33.50088,1.868-50.23224,5.58191-2.21179.491-5.66748,3.97775-6.96636-1.5309C64.733,77.742,66.85031,76.17938,70.8723,75.18641c26.44571-6.529,53.25786-7.90824,80.26737-5.54127,21.77621,1.90836,43.02009,6.32949,62.85651,15.99641,12.16675,5.92925,23.04881,13.42951,30.14278,25.427a27.24078,27.24078,0,0,1,3.99525,10.2918c1.297,10.12732.78541,19.07417.66138,30.59851-.71776,9.5198-9.0496,17.90122-18.90688,17.697a19.21976,19.21976,0,0,1-18.80463-19.12041c-.08514-10.3887,7.88852-19.27954,18.61372-18.9439,7.73871.24221,7.438-3.76855,6.36227-8.62537-1.80692-8.15825-7.32927-13.94225-13.71139-18.77577-15.9563-12.08457-34.57449-17.80371-53.8573-21.62925C153.66665,79.62,138.6299,78.47343,122.99283,78.19178Z"/></g><g class="cls-4"><path class="cls-2" d="M150.42471,194.94862c-12.97791,14.77052-27.0599,28.30059-45.13716,36.609-16.86151,7.7497-33.70531,10.59161-48.4507-4.79237-1.76339-1.83974-3.877-1.77646-6.04241-2.16539a18.91835,18.91835,0,0,1-15.23886-23.72039c3.04848-10.98773,14.51623-17.26877,25.04331-12.88186,9.62021,4.009,17.0403,16.39008,10.01845,26.72713-4.73508,6.97058-.30707,8.21508,4.44973,9.81937,7.73889,2.61,15.15956.42878,22.39821-2.19706,9.40334-3.411,17.57721-9.01607,25.1399-15.40769,32.7676-27.69363,53.992-62.97878,67.64672-103.24023.78878-2.32581-.64832-7.20932,5.20354-5.54569,5.53727,1.57416,4.13789,4.85065,3.042,8.577-8.31729,28.28275-21.89484,53.87855-39.48986,77.41016"/></g><g class="cls-3"><path class="cls-2" d="M5.54388,126.81852c.65424-16.54159,11.47322-26.06181,23.751-34.55614a21.41735,21.41735,0,0,1,5.10821-2.94155c1.842-.61793,3.93752-4.48789,5.79238-.52016,1.32723,2.83908,1.95749,5.90613-2.238,7.96724a61.73959,61.73959,0,0,0-15.56654,11.18252C10.58529,119.35066,9.887,132.90958,20.60045,145.40784a60.34641,60.34641,0,0,0,19.31274,14.67592c3.18039,1.57684,5.0995,3.85567,3.41665,6.88729-1.84219,3.31869-4.46845.079-6.18354-.7971C26.03643,160.49908,16.09775,153.367,9.56748,142.3033A30.61653,30.61653,0,0,1,5.54388,126.81852Z"/></g><g class="cls-4"><path class="cls-2" d="M205.125,65.3118c.02285,1.04737.8646,6.93974-3.00768,6.92269-4.68438-.02064-5.73953-3.1024-5.52208-7.55552a52.29273,52.29273,0,0,0-2.97966-21.08809c-4.84119-12.8978-14.90033-18.78545-28.45064-16.8398a58.651,58.651,0,0,0-24.49807,9.78974c-3.0066,2.01822-5.87122,2.386-7.55712-.57891-1.83524-3.22754,2.15829-3.82991,3.86932-4.95935,8.7032-5.745,17.98554-10.16248,28.53189-11.4459,17.26312-2.10081,31.86359,7.40984,36.50114,24.16159A92.24982,92.24982,0,0,1,205.125,65.3118Z"/></g><path class="cls-2" d="M204.20119,191.5978a57.85709,57.85709,0,0,1-3.76289,22.45084c-6.89522,17.34207-22.47239,25.23971-40.57946,20.53665a78.15932,78.15932,0,0,1-21.61106-9.36584c-1.44561-.89707-5.42-1.20692-2.67946-4.36105,1.69933-1.95578,3.60284-5.02,7.35592-2.43276a64.26878,64.26878,0,0,0,18.0938,8.23361c15.29943,4.63392,28.22667-1.91881,33.43753-17.02913a62.00822,62.00822,0,0,0,3.23783-23.29936c-.15518-3.31844-.37121-7.23922,4.07505-7.06936,3.9122.14948,1.804,4.18685,2.34175,6.44175C204.5552,187.5692,204.20119,189.62571,204.20119,191.5978Z"/><g class="cls-4"><path class="cls-2" d="M57.69116,142.54212c3.41924,2.19966,2.684,4.90382,1.88314,7.51467a152.70743,152.70743,0,0,0-6.30424,28.9265c-.163,1.56179.14227,4.10006-2.35528,3.75414-2.42592-.336-1.4392-2.77684-1.29016-4.25937A146.3203,146.3203,0,0,1,57.69116,142.54212Z"/></g><path class="cls-2" d="M147.386,60.76421c-3.19145,1.6838-5.12718.58566-6.94456-1.384-7.18568-7.78777-14.71417-15.20289-23.42241-21.3265-1.13739-.7998-2.87109-1.69733-1.72716-3.41474,1.18782-1.78325,2.61664-.40384,3.74692.383A155.44928,155.44928,0,0,1,147.386,60.76421Z"/><g class="cls-3"><path class="cls-2" d="M172.93488,179.27127c.387-4.63756,3.19917-5.10873,5.85337-5.71139A156.64094,156.64094,0,0,0,206.977,164.607c1.55825-.68065,3.90633-2.62294,5.02356.20821.993,2.5163-1.98534,2.38687-3.2697,2.98077C197.51331,172.983,185.75618,176.48862,172.93488,179.27127Z"/></g><g class="cls-4"><path class="cls-2" d="M72.99059,116.86511c-2.41728-9.9417,7.50117-27.3187,16.13528-28.30245C84.24035,96.83316,78.29519,107.88526,72.99059,116.86511Z"/></g><path class="cls-2" d="M178.09792,114.74192,164.40816,90.33121C172.85972,91.02873,181.84862,106.08023,178.09792,114.74192Z"/><g class="cls-4"><path class="cls-2" d="M103.42933,60.942C107.343,56.78648,110.744,53.291,114.005,49.66941c1.95213-2.168,3.65433-1.96245,5.54517-.00447,2.418,2.50384-.32007,3.52689-1.50829,4.60282C114.21054,57.737,111.41182,63.37214,103.42933,60.942Z"/></g><path class="cls-2" d="M194.49331,141.20338c2.72756,4.66232,3.48575,9.81632,5.0001,14.709.69044,2.23075.24352,3.81286-2.15934,4.59755-2.86937.93707-3.4556-1.03145-3.80472-3.04076C192.6092,152.17312,188.6641,146.78562,194.49331,141.20338Z"/><g class="cls-3"><path class="cls-2" d="M80.29581,180.3613c-5.81869-1.4472-10.9773-2.77432-16.15988-4.00011-2.47993-.58656-3.07652-1.99494-2.34067-4.29514.7355-2.299,2.32247-2.1429,4.08732-1.5294C71.19862,172.38469,77.90009,171.96293,80.29581,180.3613Z"/></g><path class="cls-1" d="M167.22423,135.7067c-.20974-.04835-.5092-.13108-.71488-.169a20.76555,20.76555,0,0,0-2.35728-.18994,22.99232,22.99232,0,0,1-4.41039-.7236,2.76459,2.76459,0,0,1-1.06036-1.06738l-.99278-.289a31.949,31.949,0,0,0-5.12119-22.12951c.254-.23072.73525-.65661.871-.78188a1.9448,1.9448,0,0,1,.46143-1.39245,23.01066,23.01066,0,0,1,3.65709-2.56934,20.44507,20.44507,0,0,0,2.04324-1.192c.15847-.11769.3752-.30412.54125-.437a2.47146,2.47146,0,1,0-3.06223-3.84526c-.16779.13225-.39618.30587-.54533.43521a20.39393,20.39393,0,0,0-1.62492,1.71871,23.0325,23.0325,0,0,1-3.31508,2.99931,2.73254,2.73254,0,0,1-1.4915.162l-.93568.66826A32.224,32.224,0,0,0,128.7564,97.042c-.02273-.32687-.05067-.91878-.05943-1.09765a1.94816,1.94816,0,0,1-.80228-1.22933,23.033,23.033,0,0,1,.27849-4.46051,20.45547,20.45547,0,0,0,.335-2.33745c.00759-.19809-.00407-.4859-.00407-.69973a2.47146,2.47146,0,1,0-4.91786.00233c0,.02331.00524.04545.00582.06875-.00233.20392-.01223.451-.00582.62923a20.66692,20.66692,0,0,0,.33559,2.3392,22.99894,22.99894,0,0,1,.27383,4.45935,2.68051,2.68051,0,0,1-.79818,1.27127l-.05827,1.04055a32.074,32.074,0,0,0-4.44536.6834,31.62965,31.62965,0,0,0-16.06507,9.17854q-.44861-.30936-.88907-.63039a1.94178,1.94178,0,0,1-1.46-.14157,22.94571,22.94571,0,0,1-3.31509-2.99523,20.53992,20.53992,0,0,0-1.61792-1.71871c-.14974-.12818-.3787-.303-.5465-.43638a2.93049,2.93049,0,0,0-1.71406-.64671,2.36888,2.36888,0,0,0-1.95933.8675,2.606,2.606,0,0,0,.60476,3.625l.03787.02681c.1608.13166.35889.3.508.409a20.54277,20.54277,0,0,0,2.03858,1.19319,22.9362,22.9362,0,0,1,3.6565,2.5705,2.73239,2.73239,0,0,1,.49463,1.41808l.78711.7038a31.81836,31.81836,0,0,0-5.01685,22.182l-1.02949.29947a3.3995,3.3995,0,0,1-1.05686,1.06443,22.94907,22.94907,0,0,1-4.4075.72652,20.54424,20.54424,0,0,0-2.359.18994c-.18877.03494-.451.10137-.65661.15264l-.02156.00466-.035.01049a2.468,2.468,0,1,0,1.0924,4.79141l.0367-.00583c.01632-.00347.03031-.01165.04662-.01457.20274-.046.45794-.095.63621-.14332a20.73182,20.73182,0,0,0,2.20579-.84538,23.02855,23.02855,0,0,1,4.28686-1.26136,2.72672,2.72672,0,0,1,1.41343.49931l1.072-.18352a31.9985,31.9985,0,0,0,14.18091,17.704l-.448,1.072a2.44,2.44,0,0,1,.21964,1.3907,24.02046,24.02046,0,0,1-2.2256,3.99908,20.49627,20.49627,0,0,0-1.31846,1.96458c-.09786.1853-.222.469-.31578.663a2.46913,2.46913,0,1,0,4.44012,2.10674l.00408-.00466v-.00583c.09322-.19223.22546-.44453.30412-.6246a20.33221,20.33221,0,0,0,.70962-2.25356,17.198,17.198,0,0,1,1.904-4.41739,1.99842,1.99842,0,0,1,1.05978-.51737l.55757-1.00792a31.8208,31.8208,0,0,0,22.69057.05768c.15615.27848.44745.811.52436.94558a1.943,1.943,0,0,1,1.25553.76323,22.90047,22.90047,0,0,1,1.68841,4.13424,20.55228,20.55228,0,0,0,.71371,2.25356c.07982.18177.20974.43754.30413.63039a2.47029,2.47029,0,1,0,4.44537-2.1015c-.09381-.194-.22315-.47775-.32045-.66185a20.42478,20.42478,0,0,0-1.31846-1.95991,22.93914,22.93914,0,0,1-2.18015-3.90353,1.93077,1.93077,0,0,1,.18877-1.45072,8.45928,8.45928,0,0,1-.40957-.9922,31.99731,31.99731,0,0,0,14.17388-17.831c.31812.05066.87217.1474,1.0522.1841a1.94423,1.94423,0,0,1,1.375-.511,23.0001,23.0001,0,0,1,4.28806,1.26135,20.46771,20.46771,0,0,0,2.20693.85179c.17766.04661.43114.09092.63505.13575.0169.00466.032.01223.04836.01632l.035.00524a2.468,2.468,0,1,0,1.09416-4.79144Zm-23.3629-25.04493-10.50866,7.44992-.03671-.0169a2.16907,2.16907,0,0,1-3.445-1.654l-.01165-.00524-.73-12.87813a25.54768,25.54768,0,0,1,14.73147,7.1044Zm-19.79614,14.11562H128.02l2.45864,3.07389-.88149,3.83419-3.55162,1.70882-3.56212-1.71289-.88325-3.83536ZM120.3446,104.0083a26.02429,26.02429,0,0,1,2.62352-.45094l-.73118,12.89737-.0536.02562a2.16733,2.16733,0,0,1-3.43977,1.66163l-.02039.01165-10.57681-7.49941a25.3245,25.3245,0,0,1,12.19824-6.64591ZM104.311,115.47477l9.65628,8.63612-.01049.053a2.16732,2.16732,0,0,1-.85179,3.72525l-.0099.042-12.37768,3.572a25.317,25.317,0,0,1,3.59355-16.02778Zm12.92883,22.94343-4.91787,11.883A25.45806,25.45806,0,0,1,102.10523,137.514l12.69114-2.1551.02156.028a2.13007,2.13007,0,0,1,.4253-.03786,2.16733,2.16733,0,0,1,1.95992,3.02087Zm14.51648,15.282a25.4236,25.4236,0,0,1-13.875-.71313l6.24156-11.28643h.01049a2.17023,2.17023,0,0,1,3.82021-.00347h.04661l6.2573,11.30507q-1.21824.40668-2.50119.69857Zm8.064-3.35121-4.96858-12.00481.01514-.02156a2.17026,2.17026,0,0,1,1.05047-2.81,2.14689,2.14689,0,0,1,.83022-.21557,2.09074,2.09074,0,0,1,.49813.03671l.02156-.02681,12.80416,2.16384a25.36125,25.36125,0,0,1-10.25113,12.87873Zm11.59582-18.88783-12.44-3.58309-.01165-.05243a2.17026,2.17026,0,0,1-.85063-3.72642l-.00466-.025,9.60267-8.59418a25.79753,25.79753,0,0,1,3.70369,15.98117Z"/></svg>