<svg id="Layer_1" data-name="Layer 1" xmlns="http://www.w3.org/2000/svg" viewBox="0 0 310 353.7836"><title>kubeadm-stacked-black</title><path d="M42.53711,334.94369q-1.99191-2.65869-4.11523-5.15332a45.7439,45.7439,0,0,0-4.11524-4.28808q3.98219-3.90776,7.33447-7.583,3.35028-3.67428,6.86963-7.71582H36.751q-.92853,1.12207-2.22119,2.63965-1.29246,1.51711-2.75147,3.20019-1.45944,1.68311-3.0166,3.39844-1.55814,1.71534-3.01709,3.29883v-29.1308L15.855,295.20352v49.912h9.88965V329.81381a27.00674,27.00674,0,0,1,3.3457,3.26074q1.688,1.92966,3.21289,4.02442,1.52389,2.09573,2.88184,4.19043,1.35791,2.09619,2.41846,3.82617H48.9751q-1.1294-2.19333-2.7876-4.85352Q44.52782,337.60383,42.53711,334.94369Z"/><path d="M73.53314,310.20352v26.94721q-.92935.13284-2.124.23242-1.19559.0996-2.25684.09961-3.45262.00155-4.7124-2.124-1.26123-2.124-1.26123-6.90234V310.20352H53.28949v19.44727a27.6389,27.6389,0,0,0,.73,6.57129,13.06437,13.06437,0,0,0,2.45557,5.14355,11.22307,11.22307,0,0,0,4.6792,3.35156,19.84791,19.84791,0,0,0,7.40088,1.19531,53.5026,53.5026,0,0,0,8.36279-.63085,54.9672,54.9672,0,0,0,6.50488-1.36036l-.00006-33.71777Z"/><path d="M121.25446,314.45157a12.87811,12.87811,0,0,0-4.77881-3.6836,15.75479,15.75479,0,0,0-6.5708-1.29492,17.71879,17.71879,0,0,0-3.8501.39844,18.4854,18.4854,0,0,0-3.45117,1.12891V293.60977l-9.88965,1.59375v48.78424q1.32687.39945,3.05322.7627,1.72605.36429,3.61719.63086,1.89111.26467,3.84961.43164,1.95822.166,3.75049.166a21.43561,21.43561,0,0,0,7.69921-1.29492,15.60638,15.60638,0,0,0,5.70795-3.68359,15.98394,15.98394,0,0,0,3.55078-5.77442,22.07,22.07,0,0,0,1.228-7.5664,26.18359,26.18359,0,0,0-.99554-7.4668A16.551,16.551,0,0,0,121.25446,314.45157Zm-8.23053,20.30957a7.10708,7.10708,0,0,1-6.106,2.78808q-1.32816,0-2.45606-.09961-1.12893-.09906-1.85839-.23242v-17.9873a8.61923,8.61923,0,0,1,2.42285-.99512,11.663,11.663,0,0,1,3.01953-.39844q7.03564-.00045,7.03564,9.55762A12.11851,12.11851,0,0,1,113.02393,334.76114Z"/><path d="M147.86957,309.27383a16.72109,16.72109,0,0,0-6.206,1.19532,15.57693,15.57693,0,0,0-5.34277,3.51757,17.42213,17.42213,0,0,0-3.75049,5.80762,21.34866,21.34866,0,0,0-1.42676,8.13086,22.74187,22.74187,0,0,0,1.09522,7.16791,15.13735,15.13735,0,0,0,3.38477,5.74121,15.94941,15.94941,0,0,0,5.77441,3.81641,21.99016,21.99016,0,0,0,8.19726,1.39453,34.86023,34.86023,0,0,0,3.7168-.19922q1.85742-.19913,3.48487-.498a27.81084,27.81084,0,0,0,2.95312-.69726,13.69217,13.69217,0,0,0,2.12451-.7959l-1.32763-8.03125a20.162,20.162,0,0,1-4.28126,1.22754,28.57149,28.57149,0,0,1-5.34277.498,11.47076,11.47076,0,0,1-6.77-1.792,6.57073,6.57073,0,0,1-2.85449-4.8457h22.43451q.06546-.79542.13281-1.8252c.043-.68554.06641-1.31543.06641-1.8916q-.00047-8.827-4.31446-13.374Q155.30218,309.27384,147.86957,309.27383ZM141.29834,324.142a14.12448,14.12448,0,0,1,.63086-2.48926,6.67751,6.67751,0,0,1,1.228-2.15723,5.89407,5.89407,0,0,1,1.99121-1.49316,6.64743,6.64743,0,0,1,2.854-.56445,6.27185,6.27185,0,0,1,2.88721.59765,6.0284,6.0284,0,0,1,1.9248,1.52637,6.15544,6.15544,0,0,1,1.12793,2.124,10.26318,10.26318,0,0,1,.43164,2.45606Z"/><path d="M196.08936,313.12344a11.34947,11.34947,0,0,0-4.67969-2.85351,22.88875,22.88875,0,0,0-7.30078-.9961q-1.72605.00192-3.41791.166-1.69391.167-3.21875.39844-1.52637.23235-2.82129.53125-1.29592.29928-2.15723.56445l1.26075,7.96387a21.4874,21.4874,0,0,1,4.248-1.02832,33.95878,33.95878,0,0,1,4.97852-.36524q3.78168.00147,5.30957,1.52637a5.476,5.476,0,0,1,1.52637,4.04883v.92968a15.32205,15.32205,0,0,0-2.42286-.43164,31.58568,31.58568,0,0,0-3.418-.166,26.44615,26.44615,0,0,0-5.50878.56445,14.85674,14.85674,0,0,0-4.7129,1.8252,9.46005,9.46005,0,0,0-3.28515,3.38476,10.18623,10.18623,0,0,0-1.22754,5.17774,12.25748,12.25748,0,0,0,1.06152,5.376,8.95206,8.95206,0,0,0,3.05371,3.55078,13.32408,13.32408,0,0,0,4.74512,1.958,29.02311,29.02311,0,0,0,6.13965.59766,56.80391,56.80391,0,0,0,9.15918-.63086q3.78323-.63044,5.90723-1.09473V323.54434a22.28858,22.28858,0,0,0-.7295-5.90723A10.51436,10.51436,0,0,0,196.08936,313.12344Zm-6.27253,24.82422a19.242,19.242,0,0,1-2.124.19922q-1.32816.06637-2.78711.06641a8.612,8.612,0,0,1-4.28131-.89655,3.391,3.391,0,0,1-1.55957-3.21875,3.50752,3.50752,0,0,1,.53027-1.99121,3.70831,3.70831,0,0,1,1.46094-1.26172,6.86519,6.86519,0,0,1,2.15723-.62988,19.64446,19.64446,0,0,1,2.62109-.166,19.842,19.842,0,0,1,2.19043.13282,18.05914,18.05914,0,0,1,1.792.26562Z"/><path d="M229.17627,311.0004a19.92887,19.92887,0,0,0-3.28516-1.12891,15.54,15.54,0,0,0-3.68457-.39844,16.34853,16.34853,0,0,0-6.60351,1.26172,13.07853,13.07853,0,0,0-4.87891,3.65039,16.6746,16.6746,0,0,0-3.05273,5.80762,25.79369,25.79369,0,0,0-1.0625,7.66595,21.76544,21.76544,0,0,0,1.22851,7.53321,15.66792,15.66792,0,0,0,3.55078,5.708,15.44912,15.44912,0,0,0,5.708,3.61719,21.96792,21.96792,0,0,0,7.69922,1.26172q1.79151-.00192,3.75-.166,1.95849-.168,3.84961-.43165,1.89158-.26468,3.61719-.63085,1.72512-.36576,3.05371-.7627V293.60977l-9.88965,1.59375Zm0,26.21679q-.7305.13275-1.8584.23242-1.12893.09962-2.45605.09961a7.10557,7.10557,0,0,1-6.10645-2.78808,12.11188,12.11188,0,0,1-2.05762-7.36719q-.001-9.55764,7.03614-9.55762a11.66851,11.66851,0,0,1,3.01953.39844,8.62448,8.62448,0,0,1,2.42285.99512Z"/><path d="M293.82178,313.85391a10.344,10.344,0,0,0-4.28125-3.28516,17.44976,17.44976,0,0,0-6.86914-1.1621,18.498,18.498,0,0,0-9.95606,3.25293,13.87687,13.87687,0,0,0-3.88281-2.29,16.47878,16.47878,0,0,0-6.13965-.96289q-1.92379.00192-3.916.166-1.99019.166-3.88282.46484-1.89055.29929-3.584.66407-1.69336.36521-2.95313.69629v33.71771h9.88965V318.16836q.92871-.13284,1.92481-.23242.99317-.0996,1.9248-.09961a4.55352,4.55352,0,0,1,4.21387,1.99121q1.22845,1.99072,1.22851,6.77051v18.51752h9.88965V326.0668q-.001-1.92536-.13281-3.61719a15.241,15.241,0,0,0-.59766-3.21972,8.68738,8.68738,0,0,1,2.35645-.99512,8.90261,8.90261,0,0,1,2.22363-.39844,4.55525,4.55525,0,0,1,4.21485,1.99121q1.22754,1.99072,1.22753,6.77051v18.51752h9.88965V325.40274a32.5516,32.5516,0,0,0-.59765-6.50488A12.4361,12.4361,0,0,0,293.82178,313.85391Z"/><path d="M109.21161,206.52078l25.88647,29.96069c3.29364,4.06763,5.52881-.58239,7.809-2.09179,3.1297-2.07172.75592-3.71216-.86462-5.42353-3.76031-3.97106-7.39581-8.06024-10.935-11.94049-2.67883.75489,2.8454-1.95513-.61432-1.5827-5.39483-8.09228-5.84466-6.8855-10.0296-12.52887a264.94964,264.94964,0,0,1-29.95-52.07318C79.74335,126.14969,71.70605,100.671,71.9621,73.36783c.11841-12.63507,2.03137-25.08454,11.32757-34.799,5.98835-6.25788,8.655-5.88672,13.17786,1.004,5.28424,8.05078,14.43323,12.02246,23.30658,10.1178A22.96369,22.96369,0,0,0,137.76166,31.624c1.65094-8.94208-2.43048-17.83746-10.56848-23.14215a25.31628,25.31628,0,0,0-5.78449-2.44568,20.10043,20.10043,0,0,0-12.8916,0C98.56628,9.17074,92.94037,19.03689,82.14087,22.191,73.45294,24.72836,68.51514,32.68411,64.803,40.85562c-5.29987,11.66626-6.941,24.02985-6.17383,36.6452C61.57434,125.93222,82.03406,167.5441,109.21161,206.52078Z"/><path d="M296.999,140.24777c-.55706-4.35-2.4566-8.319-4.70666-12.12445-8.35724-14.134-21.17706-22.96979-35.51038-29.95489-23.36877-11.38831-48.39557-16.59675-74.0495-18.84491-31.81915-2.78846-63.40582-1.1637-94.56079,6.528-4.73816,1.1698-7.23254,3.01062-5.9823,8.31293,1.53015,6.48956,5.6012,2.3819,8.20685,1.80353,19.71075-4.37531,39.6875-6.03815,59.17719-6.57593,18.42163.33179,36.136,1.68262,53.60058,5.14746,22.71655,4.50677,44.65015,11.24432,63.44782,25.48083,7.51855,5.69422,14.02429,12.50818,16.153,22.11921,1.26727,5.72168,1.62152,10.44665-7.49524,10.16131-12.63507-.39545-22.02862,10.07861-21.92828,22.31726a22.64223,22.64223,0,0,0,22.1532,22.52521c11.61261.24066,21.4281-9.6333,22.27368-20.84833C297.92432,162.71854,298.52692,152.1785,296.999,140.24777Z"/><path d="M181.8902,226.94l10.11126-12.7326c20.72822-27.722,36.72358-57.87567,46.52192-91.19477,1.291-4.38989,2.93957-8.24981-3.58374-10.10431-6.89392-1.95983-5.20093,3.79328-6.13013,6.53321-16.0863,47.43091-41.09015,88.99939-79.69275,121.62445-8.90936,7.52978-18.53882,14.13293-29.61658,18.15137-8.52765,3.09344-17.26977,5.66314-26.38672,2.58831-5.60388-1.88995-10.82037-3.35608-5.24212-11.56793,8.27228-12.17779-.46918-26.76361-11.80243-31.48645C63.66724,213.58316,50.15741,220.9827,46.566,233.927c-3.54059,12.76141,4.62549,25.55054,17.95251,27.94434,2.551.45819,5.041.38366,7.11841,2.551,17.3711,18.12348,37.2143,14.77551,57.07837,5.64581C150.01166,260.28018,166.60126,244.34079,181.8902,226.94Z"/><path d="M48.44006,193.04141c2.02051,1.032,5.11438,4.8487,7.28461.939,1.98254-3.57148-.27832-6.25611-4.025-8.11371a71.093,71.093,0,0,1-22.75184-17.28931c-12.62121-14.72381-11.79858-30.6972,2.10938-44.1275a72.73278,72.73278,0,0,1,18.3385-13.17383c4.94251-2.42816,4.2-6.04132,2.63648-9.386-2.18519-4.67426-4.65387-.11518-6.82386.61279a25.23357,25.23357,0,0,0-6.01788,3.46533c-14.464,10.007-27.2096,21.22247-27.98035,40.70966a36.06856,36.06856,0,0,0,4.74012,18.24218C23.64331,177.954,35.35181,186.356,48.44006,193.04141Z"/><path d="M170.39471,40.32425a69.09417,69.09417,0,0,1,28.86048-11.533c15.96325-2.29212,27.81366,4.64392,33.5169,19.8385A61.60348,61.60348,0,0,1,236.28235,73.473c-.25617,5.24609.98688,8.87665,6.50543,8.90094,4.56183.02008,3.57019-6.92151,3.54327-8.15539a108.67748,108.67748,0,0,0-3.66723-25.43879c-5.46338-19.73474-22.66376-30.939-43.001-28.46411-12.42438,1.512-23.35962,6.71613-33.61261,13.48413-2.01575,1.33057-6.7204,2.04016-4.55835,5.84247C163.478,43.13516,166.85272,42.70181,170.39471,40.32425Z"/><path d="M242.37683,208.45938c-5.238-.20013-4.98352,4.41882-4.80072,8.32819a73.05054,73.05054,0,0,1-3.81439,27.44836c-6.1388,17.801-21.368,25.52063-39.39185,20.06152-7.535-2.28228-14.81884-5.221-21.31579-9.69976-4.42139-3.048-6.66388.56189-8.66577,2.866-3.22858,3.71576,1.45355,4.08081,3.15655,5.13764a92.07739,92.07739,0,0,0,25.45941,11.03363c21.33142,5.54052,39.68244-3.76349,47.80554-24.19367a68.15954,68.15954,0,0,0,4.43293-26.44873c0-2.32324.417-4.746-.10718-6.94427C244.50208,213.39181,246.98566,208.63547,242.37683,208.45938Z"/><path d="M63.14038,207.53653c-.17554,1.74652-1.33795,4.62207,1.5199,5.01788,2.94232.40747,2.58264-2.58276,2.77472-4.42267a179.89431,179.89431,0,0,1,7.42688-34.07751c.94342-3.07575,1.80963-6.26148-2.21851-8.85285A172.37945,172.37945,0,0,0,63.14038,207.53653Z"/><path d="M142.53589,42.10654c10.25891,7.21405,19.128,15.94958,27.59326,25.12414,2.141,2.32037,4.42145,3.61408,8.18121,1.63043a183.13048,183.13048,0,0,0-33.39508-30.32617c-1.33154-.927-3.01483-2.55206-4.41412-.45123C139.1535,40.1069,141.19592,41.16428,142.53589,42.10654Z"/><path d="M208.40881,208.471c15.10437-3.27814,28.95514-7.408,42.17017-13.51874,1.51306-.69965,5.02185-.54718,3.852-3.51154-1.31622-3.33532-4.0824-1.04718-5.91815-.2453a184.53631,184.53631,0,0,1-33.20832,10.54718C212.17767,202.45254,208.86475,203.0076,208.40881,208.471Z"/><path d="M90.66718,134.95206c6.2492-10.57892,13.25305-23.59913,19.00854-33.34235C99.50409,102.76865,87.81946,123.24,90.66718,134.95206Z"/><path d="M198.36371,103.69321c5.2597,9.37872,10.45862,18.64917,16.1275,28.75756C218.90985,122.24667,208.32025,104.51492,198.36371,103.69321Z"/><path d="M143.74091,61.20785c1.39984-1.26751,4.62548-2.47277,1.77691-5.42248-2.2276-2.30664-4.23291-2.54871-6.53265.00531-3.84168,4.26642-7.84833,8.3844-12.45892,13.28C135.93018,71.93344,139.22729,65.29489,143.74091,61.20785Z"/><path d="M233.80615,163.6243c-6.86719,6.57623-2.2196,12.92309-1.13556,19.16223.41126,2.36706,1.10187,4.68616,4.48218,3.58221,2.83075-.92444,3.3573-2.78827,2.54389-5.41626C237.91266,175.18863,237.01941,169.11685,233.80615,163.6243Z"/><path d="M77.47827,199.98276c-.86688,2.70977-.16406,4.36895,2.75751,5.05993,6.10547,1.44409,12.18268,3.00751,19.03747,4.71247-2.82232-9.89392-10.7171-9.397-16.97979-11.57416C80.21436,197.45822,78.34479,197.27426,77.47827,199.98276Z"/><path d="M113.47522,155.94009a27.03013,27.03013,0,0,1-5.19238.8559,24.21644,24.21644,0,0,0-2.77906.22381c-.22241.04114-.53125.11939-.77356.17981l-.02539.0055-.04119.01233a2.90744,2.90744,0,1,0,1.28692,5.64465l.04328-.0069c.01922-.00409.0357-.01373.05493-.01715.23883-.0542.53949-.11188.74951-.16882a24.4434,24.4434,0,0,0,2.59857-.99591,27.12654,27.12654,0,0,1,5.05023-1.486,3.21262,3.21262,0,0,1,1.6651.58825l1.26294-.21618a37.69648,37.69648,0,0,0,16.70612,20.85656l-.52783,1.26288a2.87466,2.87466,0,0,1,.25878,1.63837,28.29633,28.29633,0,0,1-2.62194,4.71118,24.16115,24.16115,0,0,0-1.55323,2.31439c-.11529.21832-.26147.55255-.372.78113a2.9088,2.9088,0,1,0,5.23078,2.48187l.00482-.00549v-.00684c.1098-.2265.26563-.52368.35828-.73584a23.9568,23.9568,0,0,0,.836-2.65484,20.25943,20.25943,0,0,1,2.243-5.204,2.35413,2.35413,0,0,1,1.24847-.6095l.65686-1.18738a37.48728,37.48728,0,0,0,26.73114.06793c.184.32807.5271.95545.61774,1.114a2.289,2.289,0,0,1,1.47906.89917,26.97632,26.97632,0,0,1,1.98908,4.87042,24.21184,24.21184,0,0,0,.84082,2.65484c.094.21418.24707.51545.35828.74268a2.91018,2.91018,0,1,0,5.237-2.47571c-.11053-.22857-.26293-.56286-.37756-.77972a24.0743,24.0743,0,0,0-1.55322-2.309,27.02546,27.02546,0,0,1-2.56836-4.59863,2.27456,2.27456,0,0,1,.22235-1.709,9.97332,9.97332,0,0,1-.48248-1.16888A37.69492,37.69492,0,0,0,189.035,160.50369c.37476.05969,1.02747.17365,1.23957.21692a2.29016,2.29016,0,0,1,1.61981-.60193,27.09634,27.09634,0,0,1,5.05163,1.486,24.11762,24.11762,0,0,0,2.59992,1.00348c.20929.05487.50793.10706.74817.15991.01989.0055.03772.01441.05694.01923l.0412.00617a2.90743,2.90743,0,1,0,1.28894-5.64466h.00006c-.24707-.05694-.59985-.15442-.84216-.199a24.47116,24.47116,0,0,0-2.777-.22376,27.0856,27.0856,0,0,1-5.19574-.85242,3.257,3.257,0,0,1-1.2492-1.25744l-1.16956-.34046a37.63833,37.63833,0,0,0-6.03314-26.07019c.29925-.27179.86615-.77349,1.02606-.92108a2.29134,2.29134,0,0,1,.54364-1.64044,27.10664,27.10664,0,0,1,4.30829-3.02686,24.089,24.089,0,0,0,2.4071-1.40429c.18665-.13867.442-.35828.63764-.51477a2.91156,2.91156,0,1,0-3.60755-4.53c-.19769.15576-.46673.36029-.64245.51269a24.02693,24.02693,0,0,0-1.91425,2.02478,27.13662,27.13662,0,0,1-3.90539,3.53339,3.21979,3.21979,0,0,1-1.75715.1908l-1.10229.78729a37.96191,37.96191,0,0,0-24.04468-11.6181c-.02679-.38507-.05969-1.0824-.07-1.29309a2.295,2.295,0,0,1-.94512-1.44825,27.13762,27.13762,0,0,1,.32806-5.25482,24.10189,24.10189,0,0,0,.39465-2.75366c.009-.2334-.00476-.57245-.00476-.82434a2.91156,2.91156,0,1,0-5.79364.00275c0,.02746.00617.05352.0069.081-.00275.24023-.01441.53125-.0069.74127a24.34993,24.34993,0,0,0,.39539,2.75574,27.0934,27.0934,0,0,1,.32257,5.25348,3.15825,3.15825,0,0,1-.94031,1.49762l-.06866,1.22583a37.78962,37.78962,0,0,0-5.23694.80511,37.26152,37.26152,0,0,0-18.92578,10.813q-.52854-.36447-1.04743-.74268a2.28759,2.28759,0,0,1-1.72-.16674,27.02827,27.02827,0,0,1-3.90539-3.52863,24.21808,24.21808,0,0,0-1.906-2.02478c-.17645-.151-.44617-.35687-.64386-.514a3.4524,3.4524,0,0,0-2.01929-.7619,2.79085,2.79085,0,0,0-2.30823,1.022,3.07015,3.07015,0,0,0,.71247,4.27057l.04461.03162c.18946.15509.4228.35345.59845.48181a24.20144,24.20144,0,0,0,2.40162,1.40564,27.01946,27.01946,0,0,1,4.30761,3.02826,3.21921,3.21921,0,0,1,.58271,1.67059l.9273.8291a37.48394,37.48394,0,0,0-5.91021,26.132l-1.21283.35279A4.005,4.005,0,0,1,113.47522,155.94009Zm29.3208,4.403-5.79358,13.99908a29.99115,29.99115,0,0,1-12.03607-15.06427l14.951-2.53888.02539.033a2.50889,2.50889,0,0,1,.501-.04461,2.55326,2.55326,0,0,1,2.309,3.55877Zm17.10144,18.00409.00006-.00074a29.95063,29.95063,0,0,1-16.34576-.84014l7.353-13.29621h.01232a2.55671,2.55671,0,0,1,4.50049-.00409h.05493l7.37153,13.31818Q161.40888,178.0033,159.89746,178.3472Zm9.49994-3.94806.00006-.00067L163.54413,160.256l.01782-.02539a2.55678,2.55678,0,0,1,1.23755-3.31036,2.52961,2.52961,0,0,1,.978-.25391,2.46413,2.46413,0,0,1,.58685.04321l.02539-.03155,15.08423,2.54913A29.87708,29.87708,0,0,1,169.3974,174.39914Zm13.6601-22.25208L168.403,147.92612l-.01373-.06177a2.55672,2.55672,0,0,1-1.00214-4.39l-.00549-.02954,11.31268-10.12457A30.3914,30.3914,0,0,1,183.0575,152.14706Zm-8.90015-24.503h.00067l-12.37994,8.77655-.04322-.02a2.55528,2.55528,0,0,1-4.05853-1.94854l-.01373-.00617-.86-15.17138A30.09684,30.09684,0,0,1,174.15735,127.64407Zm-23.32056,16.62921h4.659l2.89648,3.62128-1.03845,4.51691-4.18408,2.01312-4.19647-2.01788-1.04053-4.51831Zm-4.38312-24.46746h-.00006a30.63644,30.63644,0,0,1,3.0907-.53125l-.86133,15.194-.06317.03015a2.55323,2.55323,0,0,1-4.05231,1.95752l-.024.01373-12.46027-8.83484A29.83393,29.83393,0,0,1,146.45367,119.80582Zm-18.88879,13.509.00006-.00073,11.37579,10.17395-.01232.0625a2.55328,2.55328,0,0,1-1.00348,4.38861l-.01166.04944-14.58185,4.20806A29.82541,29.82541,0,0,1,127.56488,133.31485Z"/></svg>